<svg xmlns="http://www.w3.org/2000/svg" width="90" height="90" viewBox="0 0 90 90">
  <g id="Group_4429" data-name="Group 4429" transform="translate(8151 21143)">
    <rect id="Rectangle_1073" data-name="Rectangle 1073" width="90" height="90" transform="translate(-8151 -21143)" fill="#7d7d7d" opacity="0"/>
    <g id="Group_4171" data-name="Group 4171" transform="translate(-8129 -21122)">
      <path id="Path_2685" data-name="Path 2685" d="M1888.051,724.97l1.529-.959,1.854-1.029a2.267,2.267,0,0,0,1.057-1.228l.034-.1a1.647,1.647,0,0,0,.12-.624.9.9,0,0,1,.1-.33,2.364,2.364,0,0,0,.176-.747,13.515,13.515,0,0,1,.405-1.334l.131-.385a.752.752,0,0,1,.59-.529.873.873,0,0,1,.7.533l.023.055.033.048a1.1,1.1,0,0,1,.2.625v3.456l.894-1c.587-.66,1.094-1.2,1.552-1.661a2.141,2.141,0,0,0,.582-1.307,3.814,3.814,0,0,0-.062-.882l-.006-.477a1.681,1.681,0,0,0-.073-.62,11.445,11.445,0,0,1-.065-1.508,1.027,1.027,0,0,1,.227-.564l.042-.058a.822.822,0,0,0,.116-.181l.04-.047.09-.177-.012,1.145a11.636,11.636,0,0,0,.07,1.42,2.032,2.032,0,0,0,.078.667l-.009.335a4.459,4.459,0,0,0,.037.53,4.093,4.093,0,0,1,.032.445,1.98,1.98,0,0,1-.715,1.516c-.654.651-1.293,1.361-1.836,1.974l-.457.536-.015.011-.059.1-.068.067.005.032-.086.173-.526-.175v-.1a1.149,1.149,0,0,0-.07-.486,4.484,4.484,0,0,0-.037-.464,3.815,3.815,0,0,1-.031-.441v-2.278l-.994-.186c-.078.219-.149.451-.223.691s-.135.433-.2.632a2.363,2.363,0,0,0-.154.691.937.937,0,0,0-.073.411c-.027.114-.051.2-.075.287,0,0-.09.318-.12.436a2.7,2.7,0,0,1-1.223,1.45c-.613.34-1.249.7-1.808,1.042a4.037,4.037,0,0,0-.4.236c-.152.095-.276.173-.4.235a1.949,1.949,0,0,0-.218.131.9.9,0,0,1-.081.051l-.016,0-.147.061-.073.02-.32.19S1888.059,725.013,1888.051,724.97Zm-7.166.047a2,2,0,0,1,.655-1.4,3.865,3.865,0,0,0,1.376-1.98l.285-.939a.613.613,0,0,1,.054.239,1.464,1.464,0,0,1-.054.544,4.089,4.089,0,0,1-1.3,2.224l.453.883c.671-.155,1.307-.271,2.056-.4a2.61,2.61,0,0,0,1.912-1.438,1.38,1.38,0,0,1,.074-.121,1.839,1.839,0,0,0,.125-.207,2.519,2.519,0,0,1,.313-.571l.027-.038.079-.161.206-.29a7.842,7.842,0,0,1,.846-1.084.874.874,0,0,1,.675-.328.828.828,0,0,1,.138.012.534.534,0,0,1,.059.03l-.809.972c-.271.323-.534.657-.8,1.027l-.3.6a3.615,3.615,0,0,0-.225.524,2.869,2.869,0,0,1-2.147,1.5l-.219.039c-.686.123-1.384.249-2.138.375-.352.07-.7.138-1.11.207l-.282.051Zm7.162-.073a2.564,2.564,0,0,1,.21-1.5c.2-.472.425-.987.639-1.631a1.5,1.5,0,0,0,.067-.555l-.086-1.26a.923.923,0,0,1,.463.695,3.437,3.437,0,0,1,0,1.174,11.1,11.1,0,0,1-.584,1.546Zm-9.984-1.476a3.114,3.114,0,0,1-.377-.023c-.434-.073-.865-.128-1.309-.185-.374-.048-.756-.1-1.167-.159a5.7,5.7,0,0,0-.572-.072,4.723,4.723,0,0,1-.53-.067l-.29-.025.122-.244a2.054,2.054,0,0,1,1.021-1.161,3.517,3.517,0,0,0,1.106-.665,5.357,5.357,0,0,0,.781-.814l.712-.919c.029.022.057.046.084.071a.785.785,0,0,1-.048.84,5.192,5.192,0,0,1-1.126,1.335,4.28,4.28,0,0,1-.78.52l-1.483.771,1.661.191c.648.075,1.291.182,1.917.286a2.478,2.478,0,0,0,.341.024,2.513,2.513,0,0,0,1.666-.629,1.122,1.122,0,0,0,.3-.282c.019-.022.054-.062.091-.1a3.705,3.705,0,0,1,.51-.445l.142-.106a11.248,11.248,0,0,1,1.668-1.105.547.547,0,0,1,.267-.108.492.492,0,0,1,.116.023l.1.027a.506.506,0,0,1,.042.03l-.883.586c-.335.223-.665.461-.986.692l-.32.232a1.105,1.105,0,0,0-.44.447,3.641,3.641,0,0,1-.386.309A3.022,3.022,0,0,1,1878.063,723.468Zm-5.388-3.059a2.872,2.872,0,0,1-1.3-.311c-.555-.277-1.16-.555-1.761-.831l-.452-.207a7.112,7.112,0,0,1-1.026-.477l-.287-.116.17-.195a1.976,1.976,0,0,1,1.374-.785h.009a2.691,2.691,0,0,0,1.05-.228,6.845,6.845,0,0,0,1.046-.538l1.12-.7.144.081-.127.225-.016.073-.064.116,0,.056-.005.014a1.148,1.148,0,0,1-.377.584,5.335,5.335,0,0,1-1.08.635l-.3.146a3.192,3.192,0,0,1-.848.191l-1.943.169,1.738.812,1.963.892a2.522,2.522,0,0,0,1.074.241,2.559,2.559,0,0,0,1.095-.249l.405-.2a2.218,2.218,0,0,1,.512-.237l.111-.011.06-.021a15.433,15.433,0,0,1,1.866-.533.934.934,0,0,1,.229-.031.819.819,0,0,1,.25.038l-.984.235a10.445,10.445,0,0,0-1.3.4l-.114.015-.078.041a2.687,2.687,0,0,1-.4.166,1.866,1.866,0,0,0-.36.179.984.984,0,0,1-.2.1A2.918,2.918,0,0,1,1872.675,720.408Zm28.158-2.06c-.063-.049-.123-.1-.179-.153l.608-1.334c.293-.643.595-1.3.9-1.9a2.538,2.538,0,0,0-.014-2.4l-.195-.387a1.53,1.53,0,0,1-.247-.539,13.438,13.438,0,0,1-.554-1.8,1.273,1.273,0,0,1,.095-.8.218.218,0,0,1,.139-.118l.092-.019.372,1.352c.1.379.221.808.374,1.267l.228.461c.024.05.056.106.094.17l.05.084c.065.112.1.174.128.227a3.049,3.049,0,0,1,0,2.682l-.075.153c-.317.631-.644,1.289-.963,1.994a4.018,4.018,0,0,1-.46.923l-.166.331Zm-.318-.3a2.029,2.029,0,0,1-.47-.962,5.659,5.659,0,0,0-.287-1.35,3.3,3.3,0,0,0-.5-.963l-.587-.783.055.028.051.05.141.082a2.548,2.548,0,0,1,.5.354,3.327,3.327,0,0,1,.6,1.1,8.015,8.015,0,0,1,.28,1.125Zm-32.344-2.071a2.8,2.8,0,0,1-1.9-.794c-.556-.556-1.17-1.1-1.764-1.631-.182-.176-.317-.3-.472-.429-.134-.115-.265-.23-.4-.361l-.22-.221.271-.136a2.179,2.179,0,0,1,1.134-.328,2.073,2.073,0,0,1,.261.016q.769.076,1.523.074l.329,0,.709-.026.757-.758-.821-.255-1.116-.319c-.1-.032-.217-.068-.347-.1s-.236-.068-.331-.1a1.146,1.146,0,0,0-.461-.09h-.026a3.6,3.6,0,0,1-1.045-.369,3.535,3.535,0,0,1-1.059-1.068c-.477-.75-.91-1.543-1.291-2.242a4.378,4.378,0,0,0-.408-.736l-.314-.521.339-.056a2.176,2.176,0,0,1,.5-.062,1.987,1.987,0,0,1,.828.178,14.427,14.427,0,0,0,1.836.706,1.528,1.528,0,0,0,.835.014l.946-.252-.745-.633a11.454,11.454,0,0,0-1.241-.916,3.611,3.611,0,0,0-.559-.243,1.747,1.747,0,0,1-.468-.231,2.983,2.983,0,0,1-1.523-2.134c-.138-.76-.275-1.52-.413-2.349-.07-.352-.138-.7-.207-1.109l-.053-.29.355.058a1.827,1.827,0,0,1,1.272.536c.073.071.134.138.194.2a4.483,4.483,0,0,0,.583.571,11.589,11.589,0,0,0,1.184.633l1.335.62-.073.007a.532.532,0,0,0-.313.1,1.611,1.611,0,0,1-.427.059h0a1.619,1.619,0,0,1-.257-.02,5.972,5.972,0,0,1-1.518-.775,3.641,3.641,0,0,1-.584-.478l-1.254-1.27.39,1.742c.142.631.253,1.243.369,1.935a2.4,2.4,0,0,0,1.386,1.853l.388.194a2.469,2.469,0,0,1,.563.31,17.359,17.359,0,0,1,1.517,1.1,1.285,1.285,0,0,1,.3.445l.009.043.056.134.018.063.041.079.091.159-.216.124-.038.033-.074.035-.13.1a1.634,1.634,0,0,1-.6.264,2.2,2.2,0,0,1-.411.038,2.241,2.241,0,0,1-.672-.1,13.521,13.521,0,0,1-1.517-.579l-1.365-.62.7,1.325a21.241,21.241,0,0,0,1.187,1.98,2.3,2.3,0,0,0,.866.862,3.231,3.231,0,0,0,.976.316,1.5,1.5,0,0,0,.247.074.694.694,0,0,1,.122.045s.633.191.729.222l.278.079a9.774,9.774,0,0,1,1.227.4.839.839,0,0,1,.384.275l.1.118.151.233.1.007.05.042-.359.36a3.7,3.7,0,0,1-.516.452,1.058,1.058,0,0,1-.58.207h-.457c-.524,0-1.065,0-1.643-.044l-1.511-.113,1.133,1.006c.5.445,1.078.965,1.642,1.528a2.106,2.106,0,0,0,1.528.656l.126,0,.07,0a2.245,2.245,0,0,0,.6-.082h.01a1.07,1.07,0,0,0,.213-.031,1.585,1.585,0,0,1,.263-.03h.332c.3,0,.617-.016.943-.033.365-.021.687-.037.993-.037a.906.906,0,0,1,.492.161l-1.16-.009c-.477,0-.962.023-1.437.071l-.346,0a1.3,1.3,0,0,0-.458.072,2.945,2.945,0,0,0-.368.038A2.239,2.239,0,0,1,1868.171,715.98Zm37.01-3.425a2.131,2.131,0,0,1-.423-.222l.176-1.561c.072-.645.178-1.286.282-1.908l.016-.1a2.426,2.426,0,0,0-.606-1.963,1.174,1.174,0,0,0-.423-.427l-.452-.451a17.6,17.6,0,0,1-1.061-1.533c-.117-.24-.218-.719-.046-.892a.93.93,0,0,1,.184-.123l.706,1.085c.229.352.493.717.8,1.129.077.084.108.122.14.158a1.5,1.5,0,0,0,.356.334l.119.109a1.546,1.546,0,0,1,.287.3,2.822,2.822,0,0,1,.7,2.362c-.069.429-.125.83-.174,1.234s-.1.783-.167,1.192c-.034.191-.058.387-.073.585a5.088,5.088,0,0,1-.064.511l-.027.3Zm-.539-.306a1.854,1.854,0,0,1-.549-.71l-.089-.181a5.334,5.334,0,0,0-.561-.974,3.929,3.929,0,0,0-.839-.777l-1.052-.719c.043,0,.085-.007.129-.007a1.244,1.244,0,0,1,.689.206,3.28,3.28,0,0,1,1.068,1,6.887,6.887,0,0,1,.532.861Zm2.785-6.639a2.2,2.2,0,0,1-.376-.049l-.335-1.482c-.155-.69-.27-1.38-.38-2.046a2.381,2.381,0,0,0-1.145-1.7c-.1-.049-.158-.084-.216-.12l-.284-.163-.091-.041a.988.988,0,0,1-.312-.184.74.74,0,0,0-.3-.158h0a.419.419,0,0,0-.055-.028,5.857,5.857,0,0,1-1.021-.7c-.476-.475-.715-.883-.668-1.16a1.03,1.03,0,0,1,1.33-.564,20.452,20.452,0,0,1,2.263.766l1.329.54-1.836-3.365a1.813,1.813,0,0,0-1.016-.919,4,4,0,0,0-.868-.287,1.012,1.012,0,0,0-.268-.075.6.6,0,0,1-.153-.045,2.656,2.656,0,0,0-.347-.091,2.014,2.014,0,0,1-.242-.06,16.359,16.359,0,0,1-1.707-.546,1.105,1.105,0,0,1-.545-.464.425.425,0,0,1-.073-.333.866.866,0,0,1,.412-.518l.055-.038.193-.1a.953.953,0,0,1,.558-.18h.523l.458-.008c.155-.008.28-.012.4-.012a6.441,6.441,0,0,1,.889.061l1.606.226a2.653,2.653,0,0,1-1.106.245,2.468,2.468,0,0,1-.275-.015,7.661,7.661,0,0,0-1.8,0l-.432,0-.159,1c.425.138.853.247,1.271.352a2.6,2.6,0,0,0,.342.084,2.292,2.292,0,0,1,.234.06,1.151,1.151,0,0,0,.294.087c.049.011.116.028.183.05a3.912,3.912,0,0,1,.94.271,2.323,2.323,0,0,1,1.209,1.084l.419.754c.282.5.556.988.825,1.528.094.154.153.262.212.367l.074.132c.114.207.191.344.281.491l.11.2-.3.053a2.134,2.134,0,0,1-.59.087,2.005,2.005,0,0,1-.859-.195,14.874,14.874,0,0,0-2.008-.7l-.26-.078a1.134,1.134,0,0,0-.147-.039l-.427.9a2.541,2.541,0,0,0,.219.166,2.972,2.972,0,0,0,.724.484s.187.1.255.147a.732.732,0,0,0,.229.108l.035.026.06.026.4.2a2.9,2.9,0,0,0,.317.174,2.5,2.5,0,0,1,.275.153,2.718,2.718,0,0,1,1.3,1.911c.146.879.285,1.63.491,2.449.066.334.132.665.185,1.052l.055.307Zm-.743-.171a1.8,1.8,0,0,1-.587-.421,3.194,3.194,0,0,0-.894-.813c-.343-.175-.661-.333-1.04-.492l-1.024-.429a.995.995,0,0,1,.422.03,8.984,8.984,0,0,1,1.594.666,3.291,3.291,0,0,1,.688.562Zm-41.195-5.988c-.26-.377-.555-.776-.893-1.212a1.221,1.221,0,0,0-.428-.441l-.455-.453a2.753,2.753,0,0,1-.6-2.195c.071-.424.124-.833.178-1.25.056-.446.106-.829.169-1.241a5.622,5.622,0,0,0,.073-.581,4.785,4.785,0,0,1,.065-.519l.026-.291.413.206-.172,1.759c-.055.57-.139,1.1-.229,1.631l-.082.515a2.665,2.665,0,0,0,.562,1.936c.069.072.09.094.108.118a1.644,1.644,0,0,0,.371.352l.1.093a1.6,1.6,0,0,1,.306.314c.475.612.819,1.092,1.15,1.555a1.244,1.244,0,0,1,.166.6v.2l.014.126Zm2.185-4.313-.4-1.314c-.054-.177-.119-.367-.181-.548l-.051-.15c-.085-.247-.147-.428-.2-.608l-.015-.055-.028-.049a2.438,2.438,0,0,1-.169-.393,1.741,1.741,0,0,0-.182-.364,1,1,0,0,1-.1-.2,2.828,2.828,0,0,1,.053-2.557c.319-.638.637-1.332.947-2.015l.1-.218a6.851,6.851,0,0,1,.472-1.013l.143-.284s.24.238.251.247l-1.549,3.4a2.693,2.693,0,0,0,.007,2.23,2.938,2.938,0,0,1,.188.436,1.756,1.756,0,0,0,.15.317,1.13,1.13,0,0,1,.12.288,12.762,12.762,0,0,1,.553,1.722,1.3,1.3,0,0,1,.009.412c-.013.137-.02.236-.02.335l-.072.1v.111l-.021.168Zm-.53-.03a1.193,1.193,0,0,1-.7-.218,4.019,4.019,0,0,1-1.1-1.028,4.172,4.172,0,0,1-.5-.8l-.744-1.56a1.419,1.419,0,0,1,.858.821,4.789,4.789,0,0,0,.672,1.184,3.742,3.742,0,0,0,.853.879l.979.728Zm36.88-4.45c-.592-.546-1.1-1.051-1.628-1.581a2.424,2.424,0,0,0-1.5-.679l-.11,0a2.209,2.209,0,0,0-.566.073h-.029a2.013,2.013,0,0,0-.533.071h-.573c-.188,0-.379.005-.569.011-.245.014-.41.02-.576.02-.232,0-.463-.01-.7-.031a.789.789,0,0,1-.649-.3l1.347.038c.174,0,.352-.008.536-.015.236-.009.422-.016.615-.016h.637a1.788,1.788,0,0,0,.526-.07,3.164,3.164,0,0,0,.38-.038,2.314,2.314,0,0,1,.332-.03h0a2.368,2.368,0,0,1,1.744.721,22.78,22.78,0,0,0,1.9,1.758c.123.125.256.242.41.375.136.118.267.234.4.365l.247.22-.286.131c-.054.029-.109.056-.164.082Zm-33.645-.676a1.235,1.235,0,0,1-.766-.43,3.274,3.274,0,0,1-.694-1.194,7.272,7.272,0,0,1-.284-1.176l-.23-1.485a2.041,2.041,0,0,1,.614,1.218,6.7,6.7,0,0,0,.286,1.36,4.249,4.249,0,0,0,.5.911Zm.352-1.091a15.027,15.027,0,0,0-.068-1.567l0-.315a1.63,1.63,0,0,0-.067-.528c-.007-.137-.021-.281-.041-.423a2.96,2.96,0,0,1-.03-.37,2.483,2.483,0,0,1,.787-1.744c.527-.527,1.047-1.11,1.551-1.674l.108-.122c.157-.159.279-.294.411-.449.115-.133.23-.266.361-.4l.217-.216.084.168-1.074,1.2c-.463.519-.96,1.072-1.5,1.615a2.1,2.1,0,0,0-.651,1.569,2.794,2.794,0,0,0,.066.708,2.174,2.174,0,0,0,.045.325,1.011,1.011,0,0,1,.027.207v.337c0,.346.016.673.034,1s.036.662.036,1a1.212,1.212,0,0,1-.3.713Zm25.76-.872a.8.8,0,0,1,.348-.783,7.084,7.084,0,0,1,1.42-.885,3.293,3.293,0,0,1,1.082-.279l.167-.978-.321-.143c-.557-.249-1.132-.506-1.666-.8a2.276,2.276,0,0,0-1-.236,2.24,2.24,0,0,0-.812.151,2.746,2.746,0,0,0-.664.3,1.826,1.826,0,0,0-.305.137,2.221,2.221,0,0,1-.266.116c-.2.067-.41.145-.62.222a9.4,9.4,0,0,1-1.213.39,1.32,1.32,0,0,1-.227.02,1.3,1.3,0,0,1-.181-.013c-.135-.012-.2-.017-.266-.017l-.1-.072h-.058l1-.27a10.321,10.321,0,0,0,1.659-.6c.072-.035.16-.07.228-.1.119-.047.2-.079.271-.117l.207-.109a2.016,2.016,0,0,1,.491-.212,2.619,2.619,0,0,1,.886-.159,2.536,2.536,0,0,1,1.144.273l.178.082c.686.315,1.4.64,2.1,1.021a7.233,7.233,0,0,1,1.033.483l.288.115-.17.2a1.994,1.994,0,0,1-1.429.783,5.227,5.227,0,0,0-1.264.3,6.611,6.611,0,0,0-.917.51Zm-21.65-1.745a.879.879,0,0,1-.612-.427l-.054-.075-.057-.153a2.262,2.262,0,0,1-.164-.323l-.037-.081,0-.111-.014-.061a4.808,4.808,0,0,1-.044-2.14l.3-1.429.028.058a1.983,1.983,0,0,1,.234,1.282l-.037.213a4.1,4.1,0,0,0-.032,1.966l.031.138.108.155-.073-.285,1,.218c.142-.435.252-.873.358-1.3l.2-.606a1.082,1.082,0,0,0,.08-.248.794.794,0,0,1,.04-.124l.024-.053.01-.057a4.869,4.869,0,0,1,.254-.882,2.588,2.588,0,0,1,1.091-1.209c.387-.211.759-.422,1.122-.631s.717-.411,1.092-.615c.139-.085.254-.148.364-.208l.123-.068c.208-.117.346-.194.495-.283l.242-.134.111.365-3.454,1.885a1.8,1.8,0,0,0-.919,1.016,4.163,4.163,0,0,0-.278.825,1.664,1.664,0,0,0-.078.253.667.667,0,0,1-.046.131l-.224.659c-.078.292-.161.591-.245.873s-.175.594-.246.875C1875.442,685.883,1875.115,686.273,1874.841,686.273Zm16.771-1.365,0-.32a1.777,1.777,0,0,1,.176-.741,5.659,5.659,0,0,1,1.019-1.132,4.27,4.27,0,0,1,.881-.518l-.168-.981a20.7,20.7,0,0,1-2.19-.273,2.432,2.432,0,0,0-.3-.02,2.3,2.3,0,0,0-1.338.427,3.767,3.767,0,0,0-.607.534,1.549,1.549,0,0,1-.331.277l-.041.025-.035.032a1.083,1.083,0,0,0-.288.283l-.125.1c-.347.277-.665.53-.982.741a1.364,1.364,0,0,1-.789.311l.625-.508a11.363,11.363,0,0,0,1.063-.786,1.245,1.245,0,0,0,.3-.291,1.094,1.094,0,0,0,.26-.265c.011-.012.043-.05.079-.086a2.4,2.4,0,0,1,.624-.5,2.656,2.656,0,0,1,1.581-.543,2.439,2.439,0,0,1,.408.033c.778.142,1.5.212,2.234.279a4.854,4.854,0,0,0,.524.069c.152.015.314.031.474.063l.079.036.2.025.163.014.211.043-.172.311a2.09,2.09,0,0,1-1.044,1.079,5.474,5.474,0,0,0-.94.509,5.627,5.627,0,0,0-.9.938l-.661.878Zm-10.548-1.63c.151-.192.3-.393.441-.591.183-.254.335-.465.488-.648l.04-.048.027-.057a4.407,4.407,0,0,0,.2-.483,1.172,1.172,0,0,1,.269-.429l.046-.047.032-.056a2.668,2.668,0,0,1,1.943-1.315s1.984-.347,2.366-.417.713-.142,1.1-.206l.253-.05s-.026.248-.028.257l-1.625.3c-.287.054-.568.114-.843.174-.4.085-.789.171-1.195.239a2.422,2.422,0,0,0-1.766,1.219,3.958,3.958,0,0,0-.225.526,1.136,1.136,0,0,1-.267.428l-.031.032-.273.4a12.649,12.649,0,0,1-.888,1.182,1.091,1.091,0,0,1-.416.315l-.044.02-.038.026a.444.444,0,0,1-.23.074Zm-.938.757a1.592,1.592,0,0,1-.474-.934,3.422,3.422,0,0,1,.126-1.378,5.234,5.234,0,0,1,.423-1.043l.817-1.518a1.865,1.865,0,0,1-.138,1.4,4.949,4.949,0,0,0-.575,1.3,3.137,3.137,0,0,0-.154,1.13l.05,1.094A.462.462,0,0,1,1880.126,684.034Zm6.11-.394a1.253,1.253,0,0,1-.186-.043.992.992,0,0,1-.224-1.162l.046-.1.006-.191a4.02,4.02,0,0,1,1.17-1.771l1.171-1.023,0,.02a1.784,1.784,0,0,1-.414,1.091,4.381,4.381,0,0,0-1.469,1.993l-.1.2Z" transform="translate(-1861.188 -678.796)" fill="#fff" stroke="#fff" stroke-width="0.5"/>
      <path id="Path_2686" data-name="Path 2686" d="M1887.747,709.01a3.274,3.274,0,0,1-2.984-3.566,3.178,3.178,0,0,1,1.063-2.133,3.248,3.248,0,0,1,2.238-.891c.071,0,.142,0,.213.006a3.161,3.161,0,0,1,2.25,1.126,3.063,3.063,0,0,1,.822,2.254,3.262,3.262,0,0,1-1,2.329,3.893,3.893,0,0,1-2.331.874Zm-.106-6.125a3.351,3.351,0,0,0-1.634.741,2.729,2.729,0,0,0-.948,1.819,2.954,2.954,0,0,0,2.652,3.2c.083.006.15.009.216.009a2.888,2.888,0,0,0,1.994-.795,2.8,2.8,0,0,0,.861-1.958,2.689,2.689,0,0,0-.719-1.977,3.386,3.386,0,0,0-1.311-.845l.433-.433Z" transform="translate(-1864.642 -682.259)" fill="#fff" stroke="#fff" stroke-width="0.5"/>
      <path id="Path_2687" data-name="Path 2687" d="M1886.691,712.929a8.062,8.062,0,0,1-7.436-8.7,7.477,7.477,0,0,1,2.511-5.1,8.38,8.38,0,0,1,5.595-2.139c.131,0,.261,0,.393.009a7.921,7.921,0,0,1,5.428,2.718,7.521,7.521,0,0,1,1.923,5.431,7.415,7.415,0,0,1-2.511,5.568,7.976,7.976,0,0,1-5.382,2.2h-.62ZM1879.6,704.3a7.639,7.639,0,0,0,7.031,8.2c.172.011.338.015.5.015a7.847,7.847,0,0,0,5.283-2.039,7.245,7.245,0,0,0,2.392-5.294,6.906,6.906,0,0,0-1.82-5.148,7.818,7.818,0,0,0-5.079-2.591,2.534,2.534,0,0,0-.6-.075,7.993,7.993,0,0,0-5.3,2.023,6.8,6.8,0,0,0-2.393,4.771Z" transform="translate(-1863.833 -681.464)" fill="#fff" stroke="#fff" stroke-width="0.5"/>
    </g>
  </g>
</svg>
