<svg xmlns="http://www.w3.org/2000/svg" width="90" height="90" viewBox="0 0 90 90">
  <g id="Group_4438" data-name="Group 4438" transform="translate(8709 21515)">
    <rect id="Rectangle_1012" data-name="Rectangle 1012" width="90" height="90" transform="translate(-8709 -21515)" fill="#7d7d7d" opacity="0"/>
    <g id="Group_4160" data-name="Group 4160" transform="translate(-8692 -21497)">
      <path id="Path_2654" data-name="Path 2654" d="M1195.029,34.815a1.394,1.394,0,0,1-1.39-1.408V27.286a1.5,1.5,0,0,1,1.432-1.412h2.776a1.4,1.4,0,0,1,1.412,1.407V32.27a1.506,1.506,0,0,1-.918,1.3l-2.788,1.13a1.711,1.711,0,0,1-.52.117Zm-.454-.7,3.748-1.519V26.81h-3.748Z" transform="translate(-1147.86 -22.249)" fill="#fff"/>
      <path id="Path_2655" data-name="Path 2655" d="M1163.275,74.657a2.3,2.3,0,0,1-1.264-.376l-1.51-.982a2.3,2.3,0,0,1-1.067-1.942v-3.1a2.106,2.106,0,0,1,.431-1.372l2.351-3.339a7.092,7.092,0,0,1,5.707-2.9h6.365a2.051,2.051,0,0,0,1.583-.788,1.935,1.935,0,0,0,.3-1.8l-2.863-10.023a3.327,3.327,0,0,0-3.177-2.385,1.435,1.435,0,0,1-1.412-1.42V43.26a.6.6,0,0,1,.021-.209,2.967,2.967,0,0,0,.318-.7c.287-.825.782-2.88-.817-4.144l-.13-.1h-2.657a2.406,2.406,0,0,1-2.2-1.575l-.115-.314h-3.282a2.311,2.311,0,0,1-1.757-.748l-.142-.157h-5.575a2.308,2.308,0,0,1-2.258-1.688l-.076-.276-3.6-.818a1.509,1.509,0,0,1-.9-.732l-.134-.252h-2.4a1.4,1.4,0,0,1-1.013-.417,1.388,1.388,0,0,1-.4-.99l0-.481h-5.088a.507.507,0,0,1-.512-.427.41.41,0,0,1,.083-.315.2.2,0,0,1,.15-.071l.063.018.14.011h5.083v-.477a1.4,1.4,0,0,1,1.393-1.412h2.421l.134-.256a1.509,1.509,0,0,1,.917-.745l3.572-.811.079-.268a2.366,2.366,0,0,1,2.261-1.7h5.713l.14-.143a2.539,2.539,0,0,1,1.783-.763h3.164a.516.516,0,0,0,.557-.556c0-.426.874-.431.883-.431h23.412a3.345,3.345,0,0,1,3.3,3.3v9.433a3.247,3.247,0,0,1-1.91,2.964l-4.453,1.962a2.386,2.386,0,0,0-1.323,2.834,46.674,46.674,0,0,1,2.1,12.8v3.917a1.448,1.448,0,0,0,.451,1.026l1.651,1.652a2.285,2.285,0,0,1,.691,1.627v7.625a4.242,4.242,0,0,1-4.208,4.205Zm-2.977-3.451a1.312,1.312,0,0,0,.712,1.18l1.467.956a1.89,1.89,0,0,0,.75.227l21.035,0,.007,0a3.263,3.263,0,0,0,3.187-3.27v-.476H1160.3Zm7.5-9.762a6.156,6.156,0,0,0-4.915,2.539l-2.344,3.328a1.586,1.586,0,0,0-.238.794v.789h27.158V62.677a1.439,1.439,0,0,0-.453-1.029l-.207-.207ZM1164.781,22.1a.835.835,0,0,0-.784.882V35.712a1.472,1.472,0,0,0,1.45,1.459h4.766c.014,0,3.385.393,4.87,3.077,1.061,1.98.8,4.576-.765,7.713l-.083.166,2.772,9.62a3.066,3.066,0,0,1-.2,2.147l-.331.685h9.266l-.573-.763a2.541,2.541,0,0,1-.509-1.463V54.437a49.288,49.288,0,0,0-2.061-12.521,3.19,3.19,0,0,1,1.773-3.881l4.457-1.964a2.389,2.389,0,0,0,1.42-2.169l0-9.442A2.362,2.362,0,0,0,1187.9,22.1h-23.124Zm5.435,22.548a3.6,3.6,0,0,1,3,1.6l.873,1.308V46.065c.794-2.181.825-3.912.1-5.291a5.531,5.531,0,0,0-3.877-2.586l-.872-.174.339.823a5.442,5.442,0,0,1-.14,4.444l-.047.1v1.285Zm-10.432-21.493a1.387,1.387,0,0,0-1.376,1.377v9.295a1.456,1.456,0,0,0,1.342,1.457l3.312,0,0-12.132h-3.274Zm-7.476.908a1.388,1.388,0,0,0-1.377,1.377v7.481a1.389,1.389,0,0,0,1.377,1.384h5.165V24.059h-5.165Zm-5.728,2.68-.092.083a.592.592,0,0,0-.239.506v4.161l3.748.81,0-6.322Zm-4.032,3.938h2.841V27.834h-2.841Z" transform="translate(-1136.01 -21.311)" fill="#fff"/>
      <path id="Path_2656" data-name="Path 2656" d="M1176.387,26.83a.43.43,0,1,1,.006-.86h9.36a.5.5,0,0,1,.431.462.436.436,0,0,1-.435.4Z" transform="translate(-1144.224 -22.269)" fill="#fff"/>
      <path id="Path_2657" data-name="Path 2657" d="M1176.387,31.487a.437.437,0,0,1-.43-.435.5.5,0,0,1,.462-.425l9.334,0a.429.429,0,1,1,0,.859Z" transform="translate(-1144.224 -23.227)" fill="#fff"/>
      <path id="Path_2658" data-name="Path 2658" d="M1176.387,36.241a.429.429,0,1,1,.006-.859h9.36a.5.5,0,0,1,.431.462.434.434,0,0,1-.434.4Z" transform="translate(-1144.224 -24.204)" fill="#fff"/>
    </g>
  </g>
</svg>
