<svg xmlns="http://www.w3.org/2000/svg" width="90" height="90" viewBox="0 0 90 90">
  <g id="Group_4436" data-name="Group 4436" transform="translate(8523 21329)">
    <rect id="Rectangle_1071" data-name="Rectangle 1071" width="90" height="90" transform="translate(-8523 -21329)" fill="#7d7d7d" opacity="0"/>
    <g id="Group_4427" data-name="Group 4427" transform="translate(-8495.619 -21322) rotate(45)">
      <path id="Path_2670" data-name="Path 2670" d="M1324.965,280.608a.985.985,0,0,0,.977-.979V277.5a1.307,1.307,0,0,0-.214-.611l-5.073-7.72a.947.947,0,0,0-.8-.435h-7.319a.984.984,0,0,0-.977.975v9.923a1.03,1.03,0,0,0,1.016.981Zm.419-2.881v2.325l-13.265.079V269.363h7.9Z" transform="translate(-1255.4 -259.609)" fill="#fff"/>
      <path id="Path_2671" data-name="Path 2671" d="M1378.707,283.633a2.517,2.517,0,0,0,1.813-.748,2.476,2.476,0,0,0,.709-1.767v-6.623a1.73,1.73,0,0,0-.343-1.028l-6.642-10.77a2.366,2.366,0,0,0-1.948-1.016h-7.907v-2.626a1.344,1.344,0,0,0-.43-.961,1.384,1.384,0,0,0-.993-.456h-11.685a1.446,1.446,0,0,0-1.418,1.427V261.7l-.436.051a2.6,2.6,0,0,0-2.289,2.535v2.838h-3.118v-1.963a.463.463,0,1,0-.925.009v1.954h-3.118v-1.963a.463.463,0,1,0-.925.009v1.954h-3.118v-1.963a.463.463,0,1,0-.925.009v1.954h-3.118v-1.963a.463.463,0,1,0-.925.009v1.954h-2.751v-1.963a.464.464,0,1,0-.927.01v1.955h-3.119v-1.963a.462.462,0,1,0-.924.009v1.954h-3.119v-1.963a.462.462,0,1,0-.924.009v1.954h-3.114v-1.963a.462.462,0,1,0-.924.009v1.908l-.445.044a11.117,11.117,0,0,0-1.619.283l-.361.09-.995-1.72a.491.491,0,0,0-.423-.243.481.481,0,0,0-.234.061.49.49,0,0,0-.174.653l.967,1.643-.392.257a5.359,5.359,0,0,0-1.146,1.011l-.266.313-1.754-1.016a.584.584,0,0,0-.2-.033.463.463,0,0,0-.234.886l1.679.932-.179.41a5.349,5.349,0,0,0-.4,1.482l-.054.432h-2.016a.289.289,0,0,0-.121.017.249.249,0,0,0-.133.137.242.242,0,0,0,0,.187l.039.09,0,.1a.478.478,0,0,0,.476.471h1.969l.059.425a6.169,6.169,0,0,0,.409,1.5l.168.406-1.708.949a.475.475,0,0,0,.243.888.479.479,0,0,0,.234-.061l1.746-1.011.266.313a5.374,5.374,0,0,0,1.146,1.011l.393.257-.974,1.655a.555.555,0,0,0,.219.664h0c.017,0,.092.015.169.015a.562.562,0,0,0,.466-.247l.991-1.715.378.121a5.788,5.788,0,0,0,1.557.271l.476.017v1.946a.463.463,0,1,0,.925-.009V279h3.118v1.964a.463.463,0,1,0,.925-.009V279h3.118v1.964a.463.463,0,1,0,.925-.009V279h3.118v1.964a.463.463,0,1,0,.925-.009V279h2.75v1.964a.462.462,0,1,0,.924-.009V279h3.119v1.964a.463.463,0,1,0,.927-.012V279h3.118v1.964a.462.462,0,1,0,.924-.009V279h3.119v1.964a.462.462,0,1,0,.924-.009V279h3.119v2.111a2.576,2.576,0,0,0,2.527,2.521Zm1.426-9.642a.769.769,0,0,1,.161.567l0,6.559a1.623,1.623,0,0,1-1.583,1.6h-28.833a1.625,1.625,0,0,1-1.6-1.583v-4.108h6.3a3.919,3.919,0,0,0,0-7.838h-6.3l0-4.9a1.627,1.627,0,0,1,1.584-1.6h22.61a1.543,1.543,0,0,1,1.257.65Zm-32.7,4.088h-32.3a5.272,5.272,0,0,1-5.1-3.678,5.016,5.016,0,0,1,4.834-6.351h32.568v4.515h-31.647a.463.463,0,0,0,0,.925h31.647Zm7.232-8.045a3.035,3.035,0,0,1,2.988,2.988,2.991,2.991,0,0,1-2.972,3h-6.323v-5.985h6.306Zm9.017-8.283-12.676.081v-3.195h12.676Z" transform="translate(-1306.641 -257.638)" fill="#fff"/>
    </g>
  </g>
</svg>
