<svg xmlns="http://www.w3.org/2000/svg" width="90" height="90" viewBox="0 0 90 90">
  <g id="Group_4435" data-name="Group 4435" transform="translate(8523 21143)">
    <rect id="Rectangle_1075" data-name="Rectangle 1075" width="90" height="90" transform="translate(-8523 -21143)" fill="#7d7d7d" opacity="0"/>
    <g id="Group_4169" data-name="Group 4169" transform="translate(-8494 -21122)">
      <path id="Path_2688" data-name="Path 2688" d="M1405.777,728.6a7.392,7.392,0,0,1-4.449-1.483,7.07,7.07,0,0,1-2.794-4.669,4.122,4.122,0,0,0-.025-.445c-.015-.168-.031-.344-.031-.521a13.348,13.348,0,0,0-.658-4.75c-.619-1.394-.734-2.424-.314-2.877a.844.844,0,0,1,.674-.259,2.852,2.852,0,0,1,1.058.25c1.932.748,2.57,3.064,2.755,4.026a4.812,4.812,0,0,1,.115,1.568c-.072,2.1.8,3.571,2.381,4.057a3.779,3.779,0,0,0,1.189.191,3.822,3.822,0,0,0,3.137-1.64c1.71-2.461-.94-5.977-4.009-10.048-.155-.2-.3-.393-.438-.584-.252-.342-.511-.694-.795-1.017a6.812,6.812,0,0,1-1.649-4.9,3.514,3.514,0,0,1,1.235-2.264,4.035,4.035,0,0,1,2.539-.855,6.457,6.457,0,0,1,3.013.847c2.1,1.152,1.775,3.117,1.13,4.561a3.794,3.794,0,0,0,.411,3.729,37.256,37.256,0,0,1,4,6.321c.671,1.512.378,3.989-.706,6.042a8.549,8.549,0,0,1-5.929,4.492,6.467,6.467,0,0,1-1.438.228Zm-8.075-14.591c-.461.459.047,1.808.391,2.571a13.674,13.674,0,0,1,.655,4.278l.033.531a6.038,6.038,0,0,0,.065,1.07,6.648,6.648,0,0,0,2.669,4.363,7.395,7.395,0,0,0,6.131,1.224,8.169,8.169,0,0,0,5.694-4.361,7.317,7.317,0,0,0,.674-5.782,36.6,36.6,0,0,0-3.987-6.264,3.962,3.962,0,0,1-.438-4.025c.841-2.007.472-3.466-1.06-4.233a6.14,6.14,0,0,0-2.892-.823,3.337,3.337,0,0,0-2.3.787l-.037.037a3.077,3.077,0,0,0-1.031,1.721c-.244,1.019-.167,2.728,1.572,5.079.161.207.307.4.451.6.248.337.505.685.784,1,3.131,4.116,5.854,7.692,4.028,10.348a4.107,4.107,0,0,1-4.687,1.522c-1.7-.552-2.65-2.171-2.539-4.331a5.879,5.879,0,0,0-.132-1.514c-.317-1.43-1.022-3.256-2.587-3.844l-.078-.029H1399a2.377,2.377,0,0,1-.3-.025,4.14,4.14,0,0,0-.492-.036h-.375Z" transform="translate(-1390.075 -681.162)" fill="#fff" stroke="#fff" stroke-width="0.7"/>
      <path id="Path_2689" data-name="Path 2689" d="M1409.016,705.253a.141.141,0,0,1-.13-.087V699.53a.28.28,0,0,1,.152-.028h0a.156.156,0,0,1,.152.088v5.636a.306.306,0,0,1-.152.027Z" transform="translate(-1392.85 -680.475)" fill="#fff" stroke="#fff" stroke-width="0.7"/>
      <path id="Path_2690" data-name="Path 2690" d="M1402.914,698.662a.152.152,0,0,1-.152-.153v-2.27h.3v2.12h9.09v-2.12h.244v2.27a.153.153,0,0,1-.152.153Z" transform="translate(-1391.389 -679.696)" fill="#fff" stroke="#fff" stroke-width="0.7"/>
      <path id="Path_2691" data-name="Path 2691" d="M1396.014,690.747a3,3,0,0,1-2.671-1.789c-.042-.082-.1-.174-1.67-2.452-1.323-1.922-3.509-5.1-3.775-5.533a2.555,2.555,0,0,1,.167-1.7,1.151,1.151,0,0,1,.183-.329l2.241-2.726a1.088,1.088,0,0,0,.116-.157l.042-.041.063-.1a2.886,2.886,0,0,1,2.475-1.413h21.135a2.9,2.9,0,0,1,2.515,1.413l.029.048.039.04a1.465,1.465,0,0,0,.186.246l2.21,2.691a.593.593,0,0,1,.155.255,3.614,3.614,0,0,1,.172,1.861,1.723,1.723,0,0,1-.18.382l-5.016,7.128a1.676,1.676,0,0,1-.1.161,1.78,1.78,0,0,0-.12.2,3.062,3.062,0,0,1-2.751,1.806Zm-5.038-14.779c-.033.04-.066.088-.1.135l-.018.018-.047.069-2.241,2.727a1.992,1.992,0,0,0-.318.554,3.308,3.308,0,0,0-.148,1.222,1.825,1.825,0,0,0,.411.93l4.944,7.056a.813.813,0,0,0,.084.139,1.2,1.2,0,0,1,.064.106,2.558,2.558,0,0,0,2.348,1.526h15.509a2.73,2.73,0,0,0,2.417-1.6.832.832,0,0,1,.122-.206l4.985-7.112a2.745,2.745,0,0,0,.372-.808,2.509,2.509,0,0,0-.138-1.32,1.345,1.345,0,0,0-.34-.575l-2.217-2.7-.064-.085a1.359,1.359,0,0,0-.107-.147,2.635,2.635,0,0,0-2.174-1.208H1392.71v.1A2.518,2.518,0,0,0,1390.976,675.968Zm9.037,8.961a1.143,1.143,0,0,1-1.119-1.127V678.66a1.143,1.143,0,0,1,1.128-1.119h8.051a1.143,1.143,0,0,1,1.119,1.127v5.142a1.144,1.144,0,0,1-1.124,1.119Zm-.015-7.091a.805.805,0,0,0-.806.773v5.138a.786.786,0,0,0,.213.56.8.8,0,0,0,.559.26h8.048a.807.807,0,0,0,.819-.771V678.66a.8.8,0,0,0-.771-.821Z" transform="translate(-1387.824 -674.511)" fill="#fff" stroke="#fff" stroke-width="0.7"/>
    </g>
  </g>
</svg>
