<svg xmlns="http://www.w3.org/2000/svg" width="90" height="90" viewBox="0 0 90 90">
  <g id="Group_4437" data-name="Group 4437" transform="translate(8523 21515)">
    <rect id="Rectangle_1066" data-name="Rectangle 1066" width="90" height="90" transform="translate(-8523 -21515)" fill="#7d7d7d" opacity="0"/>
    <g id="Group_4162" data-name="Group 4162" transform="translate(-8505 -21497)">
      <path id="Path_2659" data-name="Path 2659" d="M1385.544,88.984a2.841,2.841,0,0,1-1.47-.423c-9.911-6.792-13.527-14.511-14.8-18.506l-.07-.221-2.38-.885a1.4,1.4,0,0,1-.874-1.613l.744-3.965h0a.582.582,0,0,0,.032-.1.4.4,0,0,1,.027-.088l.268-.269-.207-.314-4.362-6.953-.186-.047a9.864,9.864,0,0,1-3.712-1.827l-3.458-2.716a12.69,12.69,0,0,1-3.627-4.639l-1.667-3.7a1.309,1.309,0,0,1,.129-1.426l.742-.926a.717.717,0,0,1,.566-.316,1.465,1.465,0,0,1,.178-.016.657.657,0,0,1,.464.19l2.076,1.638a1.059,1.059,0,0,1,.335,1.145l-.1.319,4.41,3.429.279-.163a1.106,1.106,0,0,1,1.036-.044l1.351.646-.728-1.307a.937.937,0,0,1,.041-.985l.193-.286-3.44-4.424-.316.1a1.085,1.085,0,0,1-1.159-.344l-1.6-2.028a.9.9,0,0,1,.166-1.243l.931-.745a1.346,1.346,0,0,1,.835-.291,1.328,1.328,0,0,1,.531.11l3.7,1.665a13.226,13.226,0,0,1,4.641,3.632l2.711,3.451a10.4,10.4,0,0,1,1.828,3.718l.048.183,7.179,4.5.239-.121c.052-.025.116-.05.18-.076s.129-.052.187-.077l3.892-.73a1.406,1.406,0,0,1,1.626.873l.883,2.376.222.07c4.028,1.282,11.791,4.911,18.519,14.817a2.866,2.866,0,0,1-.219,3.379l-.687.874a1.456,1.456,0,0,0-.16.192,1.111,1.111,0,0,1-.111.134,2.94,2.94,0,0,1-2.081.911h-.3a2.01,2.01,0,0,1-1.626-1,35.144,35.144,0,0,0-11.34-10.969,21.174,21.174,0,0,0-6.443-2.527l-.048-.01h-.051a.221.221,0,0,0-.1-.074l-5.161-2.95a2.324,2.324,0,0,1-.322-.284l-.109-.114-2.612-.451.451,2.6.106.107c.035.036.076.072.118.11a.893.893,0,0,1,.138.141l.015.045,3,5.256a1.615,1.615,0,0,0,.059.183,19.287,19.287,0,0,0,2.521,6.4,34.519,34.519,0,0,0,10.949,11.325,2.625,2.625,0,0,1,1.02,1.708,3.038,3.038,0,0,1-.912,2.3,1.151,1.151,0,0,1-.135.112,2,2,0,0,0-.238.2l-.821.64A3.431,3.431,0,0,1,1385.544,88.984ZM1367.28,63.262l-.778,4.028-.006.079a.732.732,0,0,0,.546.879l2.168.847a.961.961,0,0,1,.581.619c1.257,3.965,4.828,11.6,14.634,18.285a2.259,2.259,0,0,0,2.613-.214l.851-.67.227-.222a2.161,2.161,0,0,0,.693-1.8,2.186,2.186,0,0,0-.637-1.224l-.033-.032-.037-.025a36.012,36.012,0,0,1-11.149-11.576,20.155,20.155,0,0,1-2.534-6.575l-.015-.079-3.156-5.42Zm31.968,11.548a2.305,2.305,0,0,0,1.653-.705l.179-.179.716-.905a2.16,2.16,0,0,0,.214-2.585c-6.694-9.82-14.33-13.392-18.287-14.647a.961.961,0,0,1-.624-.577l-.865-2.229a.717.717,0,0,0-.754-.488h-.045l-.106.008-4.067.775-3.1,3.966,5.42,3.154.076.016a21.859,21.859,0,0,1,6.586,2.538A36.021,36.021,0,0,1,1397.813,74.1a1.493,1.493,0,0,0,1.271.712l.047,0C1399.17,74.81,1399.209,74.81,1399.249,74.81Zm-31.783-12.435,3.07-2.386h.035l.072-.062h.423l-.531-2.921-7.256-1.374Zm-15.434-16.311a11.437,11.437,0,0,0,3.413,4.378l3.456,2.715a10.085,10.085,0,0,0,3.962,1.82L1373.932,57v-.441a.289.289,0,0,0,.014-.028l2.434-3.131-10.7-6.639a1.722,1.722,0,0,0-.877-.242,1.7,1.7,0,0,0-1.356.665,2.353,2.353,0,0,1-3.284.407l-.626-.469h-.287l-.171.064a1.016,1.016,0,0,1-1.136-.083L1354,44.012a1.1,1.1,0,0,1-.386-1.118l.014-.055v-.291l-.187-.2L1351.2,40.63l-1.417,1.889h.649Zm12.862-.122a2.376,2.376,0,0,1,1.218.336l2.829,1.768-.67-1.451a8.408,8.408,0,0,0-1.047-1.7l-2.715-3.456a11.944,11.944,0,0,0-4.376-3.412l-3.8-1.71h-.446l-1.253.94,1.856,2.421h.3l.127-.019a.973.973,0,0,1,.278-.04.991.991,0,0,1,.805.415L1361.1,44a1.022,1.022,0,0,1,.083,1.139l-.062.11v.285l.1.189.371.494a2.9,2.9,0,0,1,.367.684l.272.727.526-.573a.379.379,0,0,1,.107-.08l.1-.047.066-.083A2.372,2.372,0,0,1,1364.893,45.944Z" transform="translate(-1349.652 -35.638)" fill="#fff" stroke="#fff" stroke-width="0.5"/>
      <path id="Path_2660" data-name="Path 2660" d="M1368.876,56.952a1.655,1.655,0,0,1-1.171-.48,2.195,2.195,0,0,1-.789-1.394,1.792,1.792,0,0,1,.386-1.48,1.941,1.941,0,0,1,1.35-.758,2.045,2.045,0,0,1,.352-.033,1.788,1.788,0,0,1,1.147.418,2.08,2.08,0,0,1,.364,2.922,1.937,1.937,0,0,1-1.565.806Zm-.318-3.427a1.758,1.758,0,0,0-.795.493l-.031.034-.025.039a1.721,1.721,0,0,0-.256.939v.056l.015.055a1.761,1.761,0,0,0,.507.847,1.466,1.466,0,0,0,.908.322,1.444,1.444,0,0,0,.879-2.593,1.343,1.343,0,0,0-.825-.284h-.035A.665.665,0,0,0,1368.557,53.525Z" transform="translate(-1353.199 -39.171)" fill="#fff" stroke="#fff" stroke-width="0.5"/>
    </g>
  </g>
</svg>
