<svg xmlns="http://www.w3.org/2000/svg" width="90" height="90" viewBox="0 0 90 90">
  <g id="Group_4431" data-name="Group 4431" transform="translate(8151 21515)">
    <rect id="Rectangle_1068" data-name="Rectangle 1068" width="90" height="90" transform="translate(-8151 -21515)" fill="#7d7d7d" opacity="0"/>
    <g id="Group_4163" data-name="Group 4163" transform="translate(-8133 -21494)">
      <path id="Path_2664" data-name="Path 2664" d="M1725.9,120.278a.531.531,0,0,1-.4-.2l-2.273-2.765a.859.859,0,0,1-.188-.579V104.875h-.821c-.043,0-.07,0-.1,0a.874.874,0,0,1-.721-.972V76.337a3.956,3.956,0,0,1,.174-1.676A2.3,2.3,0,0,1,1723.682,73h9.375a2.509,2.509,0,0,1,2.259,2.694v7.035a1.288,1.288,0,0,0,.414,1.075c.158.167.28.306.373.414a.931.931,0,0,0,.865.434s.448-.007.621-.007H1755.1a.323.323,0,0,0,.109.01.971.971,0,0,0,.774-.391c.194-.216.406-.448.622-.682.456-.5.909-.988,1.333-1.513a2.065,2.065,0,0,1,1.523-.69c.525,0,1.05.007,1.576.016s1.046.015,1.575.015,1.068-.008,1.6-.032l.1,0a1.9,1.9,0,0,1,1.424.683,2.376,2.376,0,0,1,.558,1.592v3.079a.95.95,0,0,0,.866.992c1.815.041,7,.042,7.215.042a.391.391,0,0,1,.291.158.481.481,0,0,1,.093.327c0,.887,0,1.847-.062,2.625,0,.144,0,.38-.427.46l-7.159,0a.944.944,0,0,0-.884.992v2.692a2.485,2.485,0,0,1-.929,2.354,1.054,1.054,0,0,0-.4.868V106a.944.944,0,0,0,.884.992h2.324a1.362,1.362,0,0,1,1.275,1.431v6.737a.317.317,0,0,1-.27.286l-37.721,0a.58.58,0,0,0-.115-.007,1.3,1.3,0,0,0-1.179.794l-2.259,3.586a.83.83,0,0,1-.737.45Zm-1.143-15.186a.944.944,0,0,0-.884.992v10.287c0,.054,0,.1-.005.153a.949.949,0,0,0,.2.753l1.7,2.118a1.063,1.063,0,0,0,.742.321,1.118,1.118,0,0,0,.9-.471c.3-.444.575-.9.844-1.348l.047-.076c.24-.4.489-.806.747-1.2a2.587,2.587,0,0,0,.166-.393l.207-.639h-2.135a1.16,1.16,0,0,1-1.086-1.219V107.78c0-.354.1-.574.573-.574h2.4a.944.944,0,0,0,.883-.992v-.13a.944.944,0,0,0-.883-.992Zm2.942,2.605a.944.944,0,0,0-.884.992v5.191a.944.944,0,0,0,.884.992h40.363a.944.944,0,0,0,.883-.992v-5.192a.945.945,0,0,0-.882-.991Zm4.934-6.464a3.392,3.392,0,0,0-.035.6,8.566,8.566,0,0,1-.061,1.23,2.565,2.565,0,0,1-1.309,1.769,1.5,1.5,0,0,0-.322.237l-.139.141v.21c0,.124,0,.244-.008.362-.006.175-.01.342-.007.51a.955.955,0,0,0,.88.987h30.747l-.155-.608c-.023-.087-.047-.174-.073-.26a12.989,12.989,0,0,1-.5-1.413l-.339-1.068c-.589-1.85-1.145-3.6-1.618-5.383a.823.823,0,0,0-.64-.692,2.224,2.224,0,0,1-.874-.628c-.211-.236-.423-.468-.64-.7-.457-.5-.9-.981-1.315-1.492a1.358,1.358,0,0,0-.934-.445H1740.3c-.011,0-.105,0-.105,0l-.087,0a1.222,1.222,0,0,0-1,1.37v1.179c0,.524-.108.645-.574.645h-4.969a.934.934,0,0,0-.884.962V99a.936.936,0,0,0,.884.972h4.275a3.56,3.56,0,0,1,2.258.8,4.223,4.223,0,0,1,1.307,1.8.451.451,0,0,1-.189.564.369.369,0,0,1-.133.024.4.4,0,0,1-.364-.248l-.023-.052-.025-.043,0-.028-.026-.056a3.146,3.146,0,0,0-2.783-1.894l-5.158,0Zm28.819-3.239a.811.811,0,0,0-.248.056,1.031,1.031,0,0,0-.534,1.271c.594,1.852,1.173,3.721,1.733,5.527l.742,2.389.357-.073a1.468,1.468,0,0,1,.219-.029l.4-.024V98.986a.944.944,0,0,0-.884-.992h-1.786Zm-38.338-18.383a.943.943,0,0,0-.883.992v21.964a1.542,1.542,0,0,0,1.448,1.588c1.788,0,3.7-.006,5.691-.071h1.069a1.512,1.512,0,0,0,1.447-1.46V80.6a.944.944,0,0,0-.884-.992Zm41.142,17.378a.691.691,0,0,0,.146.012,1.025,1.025,0,0,0,.18-.016,1.165,1.165,0,0,0,.778-.53,1.448,1.448,0,0,0,.215-.994V83.938c0-1.047-.453-1.555-1.384-1.555h-4.429a1.721,1.721,0,0,0-1.308.579c-.695.707-1.325,1.414-1.969,2.209a1.522,1.522,0,0,1-1.139.545h-18.776a.832.832,0,0,1-.635-.331,8.76,8.76,0,0,0-.7-.8c-.115-.121-.22-.233-.32-.345a1.471,1.471,0,0,1-.3-.6l0-3.032a.944.944,0,0,0-.884-.991h-.178a.943.943,0,0,0-.883.992V95.287a1.485,1.485,0,0,0,1.389,1.561h3.472a.894.894,0,0,0,.228-.037l.1-.024.356-.064V95.79a2.153,2.153,0,0,1,1.062-1.878,2.385,2.385,0,0,1,1.066-.259l15.2,0a1,1,0,0,1,.768.343c.458.563.939,1.088,1.449,1.643.255.279.508.556.764.841a1.441,1.441,0,0,0,1.064.509l.057,0Zm2.984-8.419a.947.947,0,0,0-.892.992v.117a.944.944,0,0,0,.884.992h6.23l-.027-.077a1,1,0,0,0,.55-.915.948.948,0,0,0-.87-.993ZM1723.87,74.06a1.543,1.543,0,0,0-.22.016,1.832,1.832,0,0,0-1.414,2.088c0,.5-.017,1.041-.065,1.566,0,.874.192,1.088.942,1.088h10.618a1.722,1.722,0,0,0,.284-.031c.082-.014.143-.025.21-.033l.389-.041s-.013-.883-.019-1.1a14.757,14.757,0,0,1,.013-1.534,2,2,0,0,0,0-.252,1.776,1.776,0,0,0-1.674-1.757l-.1,0h-2.578c-.7,0-1.389.008-2.078.016-.669.009-1.351.016-2.039.016s-1.377-.007-2.069-.031A1.16,1.16,0,0,0,1723.87,74.06Z" transform="translate(-1721.377 -72.995)" fill="#fff" stroke="#fff" stroke-width="0.5"/>
      <path id="Path_2665" data-name="Path 2665" d="M1729.171,89.837a.56.56,0,0,1-.454-.275,1.261,1.261,0,0,1-.131-.529v-3.4a1.136,1.136,0,0,1,.066-.471l.015-.04.007-.044a.607.607,0,0,1,.581-.431.569.569,0,0,1,.588.556l0,4.053a.55.55,0,0,1-.5.556l-.048,0-.047.014A.285.285,0,0,1,1729.171,89.837Z" transform="translate(-1722.863 -75.397)" fill="#fff" stroke="#fff" stroke-width="0.5"/>
      <path id="Path_2666" data-name="Path 2666" d="M1725.414,89.768a.57.57,0,0,1-.461-.233.688.688,0,0,1-.128-.381v-3.83a.7.7,0,0,1,.424-.7.551.551,0,0,1,.267-.082.434.434,0,0,1,.309.129.835.835,0,0,1,.261.649V89.16a.54.54,0,0,1-.412.552A.754.754,0,0,1,1725.414,89.768Z" transform="translate(-1722.088 -75.376)" fill="#fff" stroke="#fff" stroke-width="0.5"/>
      <path id="Path_2667" data-name="Path 2667" d="M1733.026,89.645a.469.469,0,0,1-.087-.008.57.57,0,0,1-.6-.5V84.953a.6.6,0,0,1,.56-.488.674.674,0,0,1,.629.509l-.02,4.312A.508.508,0,0,1,1733.026,89.645Z" transform="translate(-1723.638 -75.36)" fill="#fff" stroke="#fff" stroke-width="0.5"/>
    </g>
  </g>
</svg>
