<svg xmlns="http://www.w3.org/2000/svg" width="90" height="90" viewBox="0 0 90 90">
  <g id="Group_4440" data-name="Group 4440" transform="translate(8709 21143)">
    <rect id="Rectangle_1109" data-name="Rectangle 1109" width="90" height="90" transform="translate(-8709 -21143)" fill="#7d7d7d" opacity="0"/>
    <g id="Group_4428" data-name="Group 4428" transform="translate(-37.5 -20)">
      <path id="Path_2683" data-name="Path 2683" d="M1167.99,714.894a.325.325,0,0,1-.253-.1.3.3,0,0,1-.08-.217v-6.056a.312.312,0,0,1,.3-.333H1184a.33.33,0,0,1,.254.1.3.3,0,0,1,.079.217v6.056a.313.313,0,0,1-.3.333Zm.334-.667h15.341l0-5.3h-15.343Z" transform="translate(-9793.025 -21784.197)" fill="#fff" stroke="#fff" stroke-width="0.3"/>
      <path id="Path_2684" data-name="Path 2684" d="M1140.312,719.505a1.488,1.488,0,0,1-1.487-1.487V692.039a1.488,1.488,0,0,1,1.487-1.486h10.853a.375.375,0,0,1,.259.12l.757.757,2.782-2.782a.37.37,0,0,1,.273-.13h1.016a1.636,1.636,0,0,0,1.633-1.634V686a1.488,1.488,0,0,1,1.486-1.487h1.7a1.489,1.489,0,0,1,1.486,1.486v.882a1.635,1.635,0,0,0,1.633,1.634h15.059a.376.376,0,0,1,.259.12l2.994,2.995a.366.366,0,0,1,.132.272v5.635h.691a.293.293,0,0,1,.131.023l3.94,2a.222.222,0,0,1,.06.107l0,.1v13.5a.353.353,0,0,1-.2.311l-4.013,2.041-.036-.006-.085.022h-24.563a1.638,1.638,0,0,0-.712.164l-7.63,3.683-.018.022h.008Zm8.888-28.218a1.635,1.635,0,0,0-1.633,1.633v24.353a1.635,1.635,0,0,0,1.633,1.633h.618a1.649,1.649,0,0,0,.71-.161l7.632-3.684,22.883-.021a1.946,1.946,0,0,0,1.944-1.945V699.975a1.635,1.635,0,0,0-1.634-1.633H1158.29a.374.374,0,0,1-.259-.12l-6.457-6.456a1.628,1.628,0,0,0-1.156-.478Zm-8.532-.066a.933.933,0,0,0-.839.978v25.548a.927.927,0,0,0,.839.954l5.344,0a.942.942,0,0,0,.887-.981V692.174a.925.925,0,0,0-.838-.953l-5.369,0Zm44.549,8.216a1.633,1.633,0,0,0-1.633,1.635v11.1a1.634,1.634,0,0,0,1.636,1.636,1.62,1.62,0,0,0,.713-.164l-.294-.922.359.89a1.641,1.641,0,0,0,.923-1.47V701.1a1.643,1.643,0,0,0-.919-1.471A1.742,1.742,0,0,0,1185.217,699.437Zm-27.128-6.116a1.645,1.645,0,0,0-1.156.479,1.634,1.634,0,0,0,0,2.311l1.017,1.017a1.621,1.621,0,0,0,1.154.479h17.228a1.635,1.635,0,0,0,1.633-1.633V693.8h-.127a.938.938,0,0,0-.132-.182.99.99,0,0,0-.7-.3l-.121.007Zm19.123-.869a.374.374,0,0,1,.258.119l1.029,1.029a.366.366,0,0,1,.13.271v2.036a1.635,1.635,0,0,0,1.633,1.634,1.652,1.652,0,0,0,1.7-1.634v-3.189a1.622,1.622,0,0,0-.478-1.155l-1.834-1.834a1.627,1.627,0,0,0-1.156-.478l-22.412,0a1.626,1.626,0,0,0-1.1.432l-1.082.987a1.667,1.667,0,0,0-.533,1.207,1.626,1.626,0,0,0,.48,1.156l.161.16a1.634,1.634,0,0,0,2.311,0l.608-.609a.371.371,0,0,1,.272-.13Zm-19-5.5a1.636,1.636,0,0,0,1.634,1.634h.883a1.636,1.636,0,0,0,1.633-1.634v-1.086a1.078,1.078,0,0,0-.979-1.09h-2.148a1.088,1.088,0,0,0-1.023,1.1v1.073Z" transform="translate(-9787.325 -21779.516)" fill="#fff" stroke="#fff" stroke-width="0.3"/>
    </g>
  </g>
</svg>
