<svg xmlns="http://www.w3.org/2000/svg" width="90" height="90" viewBox="0 0 90 90">
  <g id="Group_4432" data-name="Group 4432" transform="translate(8337 21515)">
    <rect id="Rectangle_1067" data-name="Rectangle 1067" width="90" height="90" transform="translate(-8337 -21515)" fill="#7d7d7d" opacity="0"/>
    <g id="Group_4161" data-name="Group 4161" transform="translate(-8317 -21497)">
      <path id="Path_2661" data-name="Path 2661" d="M1510.217,99.78a2.59,2.59,0,0,1-1.842-.762l-2.865-2.865-.239-.011h-.081l-.088.026a6.787,6.787,0,0,1-7.049-1.628L1485.4,81.888l-.24-.012h-.223l-.868.863a.551.551,0,0,1-.777,0l-4.362-4.362-.313-.008-.086.025c-.317.06-.672.116-1.027.161h-.008a.52.52,0,0,1-.558-.469.5.5,0,0,1,.425-.542,15.383,15.383,0,0,0,8.84-4.3,15.152,15.152,0,0,0,0-21.371,14.887,14.887,0,0,0-8.861-4.307.487.487,0,0,1-.407-.525.523.523,0,0,1,.507-.513A16.284,16.284,0,0,1,1487,51.151a15.672,15.672,0,0,1,4.176,7.148l.039.143.266.25.226.013h.211l.176-.16,4.831-4.831-.341-.416-.713-.713a.556.556,0,0,1,0-.779l2.9-2.9a.552.552,0,0,1,.778,0l7.387,7.386a.553.553,0,0,1,0,.779l-2.9,2.9a.552.552,0,0,1-.778,0l-.853-.852-.238-.011h-.211l-.177.16-8.416,8.416.34.416,2.156,2.156a.555.555,0,0,1,0,.779l-1.054,1.052.341.417,12.509,12.507a6.82,6.82,0,0,1,1.632,7.041l-.105.3.235.265,2.8,2.8a2.543,2.543,0,0,1-.142,3.589A2.6,2.6,0,0,1,1510.217,99.78Zm-1.879-5.914c-.118.12-.238.259-.358.4-.107.125-.213.251-.32.358a6.378,6.378,0,0,1-.709.635l-.459.354,2.687,2.687a1.564,1.564,0,0,0,2.151.012l.43-.4-.081-.064a1.445,1.445,0,0,0-.377-1.735L1508.7,93.5Zm-9.647-.136a5.867,5.867,0,0,0,8.178.235l.115-.113a5.7,5.7,0,0,0-.047-8.042l-12.646-12.645-.239-.012h-.215l-.177.166-7.654,7.654.34.415Zm-15.342-12.37.2.135.18.01h.224l10.783-10.78-.341-.416-2.687-2.687-.211-.066-.453,0-.151.379a15.615,15.615,0,0,1-3.8,6.113,17.359,17.359,0,0,1-6.135,3.81l-.093.033-.476.425.359.436,2.568,2.567Zm14.032-26.412-5.612,5.536-.115.172-.006.182a15.032,15.032,0,0,1-.144,4.817l-.051.267,1.158,1.158,8.805-8.805-.34-.416-2.916-2.916-.139-.111-.249-.049h-.216Zm-.359-2.755.322.415,6.036,6.035.239.012h.215l.177-.166,1.734-1.732-.342-.416-6.025-6.024-.238-.012h-.224Z" transform="translate(-1463.675 -46.528)" fill="#fff"/>
      <path id="Path_2662" data-name="Path 2662" d="M1474.573,69.327a4.709,4.709,0,1,1,3.319-8.033,4.709,4.709,0,0,1-3.319,8.033Zm.037-8.292a3.622,3.622,0,1,0,2.562,1.06A3.6,3.6,0,0,0,1474.61,61.035Z" transform="translate(-1462.607 -48.548)" fill="#fff"/>
      <path id="Path_2663" data-name="Path 2663" d="M1473.281,75.3a11.978,11.978,0,1,1,8.483-3.493A11.971,11.971,0,0,1,1473.281,75.3Zm.038-22.831a10.939,10.939,0,0,0-7.721,3.164,11.052,11.052,0,0,0-.006,15.448,10.923,10.923,0,1,0,7.727-18.612Z" transform="translate(-1461.317 -47.256)" fill="#fff"/>
    </g>
  </g>
</svg>
