<svg xmlns="http://www.w3.org/2000/svg" width="90" height="90" viewBox="0 0 90 90">
  <g id="Group_4430" data-name="Group 4430" transform="translate(8151 21329)">
    <rect id="Rectangle_1069" data-name="Rectangle 1069" width="90" height="90" transform="translate(-8151 -21329)" fill="#7d7d7d" opacity="0"/>
    <g id="Group_4164" data-name="Group 4164" transform="translate(-8109.089 -21319) rotate(45)">
      <g id="Group_4157" data-name="Group 4157" transform="translate(0 0)">
        <path id="Path_2679" data-name="Path 2679" d="M1758.04,259.8a4.387,4.387,0,1,0-4.387-4.386A4.406,4.406,0,0,0,1758.04,259.8Zm0-8.1a3.781,3.781,0,1,1-3.78,3.787A3.786,3.786,0,0,1,1758.04,251.705Z" transform="translate(-1721.817 -240.533)" fill="#fff" stroke="#fff" stroke-width="0.5"/>
        <path id="Path_2680" data-name="Path 2680" d="M1756.957,262.824a8.4,8.4,0,1,0-8.4-8.4A8.425,8.425,0,0,0,1756.957,262.824Zm0-16.273a7.8,7.8,0,1,1-7.8,7.8,7.865,7.865,0,0,1,7.8-7.8h0Z" transform="translate(-1720.735 -239.47)" fill="#fff" stroke="#fff" stroke-width="0.5"/>
        <path id="Path_2681" data-name="Path 2681" d="M1772.877,271.808a1.852,1.852,0,1,0-1.85-1.85A1.862,1.862,0,0,0,1772.877,271.808Zm.011-3.37a1.522,1.522,0,1,1-.016,0h.016Z" transform="translate(-1747.805 -244.159)" fill="#fff" stroke="#fff" stroke-width="0.5"/>
        <path id="Path_2682" data-name="Path 2682" d="M1789.639,280.006a1.728,1.728,0,0,0,1.71-1.712v-4.929c0-.473-.062-2.894-1.27-4.1a1.09,1.09,0,0,0-.255-.206l-.617-.36.571-.427a4.285,4.285,0,0,0,1.712-3.489V252.515a14.675,14.675,0,0,0-14.507-14.6h-.093a14.536,14.536,0,0,0-5.735,1.16l-.293.124-1.141-1.141a1.546,1.546,0,0,0-.947-.355h-.005a1.25,1.25,0,0,0-.915.356l-.351.351a2.006,2.006,0,0,1-1.323.5,1.972,1.972,0,0,1-.272-.019l-.8-.144a1.287,1.287,0,0,0-1.2.358l-.5.5a1.281,1.281,0,0,0-.364,1.188l.143.788a1.913,1.913,0,0,1-.467,1.6l-.367.37a1.542,1.542,0,0,0-.356.946,1.232,1.232,0,0,0,.356.921l1.21,1.21-.123.292a14.854,14.854,0,0,0-1.161,5.8V255.9a3.762,3.762,0,0,1-1.127,2.661l-1.263,1.266a4.4,4.4,0,0,0-1.269,3.116V265.6h-14.257v-2.8a.309.309,0,0,0-.306-.3h-3.094a.431.431,0,0,0-.376.295v6.065a.307.307,0,0,0,.307.3h45.99l.133.252a7.863,7.863,0,0,1,.9,4.121v4.762A1.728,1.728,0,0,0,1789.639,280.006Zm-1.187-10.776a2.219,2.219,0,0,1,1.331.447c1.141,1.045,1.173,3.482,1.173,3.757v4.931a1.176,1.176,0,0,1-2.353,0v-4.792a10.982,10.982,0,0,0-.608-3.718l-.218-.624Zm-29.823-.535h-14.257V266.2h14.257Zm-14.932-.07h-2.5l0-5.593h2.494Zm33.148-30.174a13.938,13.938,0,0,1,13.968,14V264.7a3.853,3.853,0,0,1-3.771,3.854h-27.879v-5.679a3.764,3.764,0,0,1,1.127-2.662l1.263-1.271a4.409,4.409,0,0,0,1.272-3.117v-3.167a14.108,14.108,0,0,1,13.99-14.206Zm-7.952-.213a.728.728,0,0,1,.506.2l1.015,1-.543.308a15.062,15.062,0,0,0-5.668,5.668l-.306.54-1-1a.741.741,0,0,1-.209-.546.726.726,0,0,1,.2-.537l.359-.36a2.16,2.16,0,0,0,.644-2.09l-.146-.8a.748.748,0,0,1,.2-.623l.434-.434a.647.647,0,0,1,.609-.271h.042l.817.148a2.29,2.29,0,0,0,.5.057,2.216,2.216,0,0,0,1.605-.693l.361-.362a.74.74,0,0,1,.515-.211Z" transform="translate(-1740.597 -237.705)" fill="#fff" stroke="#fff" stroke-width="0.5"/>
      </g>
    </g>
  </g>
</svg>
