<svg xmlns="http://www.w3.org/2000/svg" width="90" height="90" viewBox="0 0 90 90">
  <g id="Group_4439" data-name="Group 4439" transform="translate(8709 21329)">
    <rect id="Rectangle_1072" data-name="Rectangle 1072" width="90" height="90" transform="translate(-8709 -21329)" fill="#7d7d7d" opacity="0"/>
    <g id="Group_4167" data-name="Group 4167" transform="translate(-8686 -21306)">
      <path id="Path_2668" data-name="Path 2668" d="M1149.143,237.387a1.723,1.723,0,0,1-1.241-.513,1.7,1.7,0,0,1-.492-1.217v-1.5a1.726,1.726,0,0,1,1.715-1.734h.472l.033-.472a19.469,19.469,0,0,1,13-17.708l.274-.1.046-.288a1.749,1.749,0,0,1,1.736-1.483h8.885a1.749,1.749,0,0,1,1.74,1.483l.045.286.274.1a19.485,19.485,0,0,1,13.06,17.714l.019.5.5-.032a1.719,1.719,0,0,1,1.7,1.73v1.5a1.727,1.727,0,0,1-1.715,1.734Zm0-4.439a1.215,1.215,0,0,0-1.2,1.2v1.5a1.218,1.218,0,0,0,1.2,1.2h40.033a1.218,1.218,0,0,0,1.2-1.2v-1.506a1.217,1.217,0,0,0-1.2-1.2h-40.037Zm13.15-17.991a18.891,18.891,0,0,0-12.135,16.957l-.019.5h37.839l-.019-.5a18.854,18.854,0,0,0-12.132-16.958l-.659-.252v13.571a.232.232,0,1,1-.463,0v-14.1a1.218,1.218,0,0,0-1.2-1.2h-4.214v16.812a.231.231,0,1,1-.462,0V212.966h-4.208a1.217,1.217,0,0,0-1.2,1.2v14.109a.232.232,0,1,1-.463,0V214.7Z" transform="translate(-1147.41 -212.372)" fill="#fff" stroke="#fff" stroke-width="0.5"/>
      <path id="Path_2669" data-name="Path 2669" d="M1178.059,262.849a9.2,9.2,0,0,1-7.864-4.467,1.015,1.015,0,0,0-.308-.337l-.051-.049-.089-.054a1.232,1.232,0,0,0-.582-.148,1.215,1.215,0,0,0-1.042.582,9.2,9.2,0,0,1-7.868,4.473H1155.8a4.71,4.71,0,0,1-4.5-3.371l-.1-.35h-3.564a.239.239,0,0,1-.231-.236v-5.939a.239.239,0,0,1,.235-.231h3.421v-.487A3.239,3.239,0,0,1,1154.3,249h29.649a3.253,3.253,0,0,1,3.181,2.554l.082.384h3.463a.257.257,0,0,1,.168.086.254.254,0,0,1,.064.183v5.972a.24.24,0,0,1-.236.232h-3.413l-.065.41a4.751,4.751,0,0,1-4.684,4.028Zm-8.827-5.565a1.673,1.673,0,0,1,1.433.815,8.573,8.573,0,0,0,7.37,4.221h4.475a4.216,4.216,0,0,0,4.181-3.722h.028l.069-.487v-5.942a2.7,2.7,0,0,0-2.687-2.708h-29.666a2.688,2.688,0,0,0-2.706,2.711v5.938a4.211,4.211,0,0,0,4.206,4.208h4.442a8.667,8.667,0,0,0,7.405-4.221,1.414,1.414,0,0,1,.538-.542l.076-.048A1.658,1.658,0,0,1,1169.233,257.284Zm-21.295,1.314h3.193v-3.19h-3.193Zm39.248-.719h3.191l0-3.192h-3.194Zm-39.248-2.939h3.193v-1.756h-3.193Zm39.248-.783h3.19l.005-1.691h-3.195Z" transform="translate(-1147.41 -219.287)" fill="#fff" stroke="#fff" stroke-width="0.5"/>
    </g>
  </g>
</svg>
