<svg xmlns="http://www.w3.org/2000/svg" width="90" height="90" viewBox="0 0 90 90">
  <g id="Group_4434" data-name="Group 4434" transform="translate(8337 21143)">
    <rect id="Rectangle_1074" data-name="Rectangle 1074" width="90" height="90" transform="translate(-8337 -21143)" fill="#7d7d7d" opacity="0"/>
    <g id="Group_4170" data-name="Group 4170" transform="translate(-8314 -21120)">
      <path id="Path_2692" data-name="Path 2692" d="M1621.648,722.05a1.829,1.829,0,0,1-1.823-1.823V703.563a1.811,1.811,0,0,1,1.173-1.706l.3-.114V683.086a2.242,2.242,0,0,1,2.222-2.253H1635.2v-1.806a1.521,1.521,0,0,1,1.517-1.516h11.252a1.52,1.52,0,0,1,1.515,1.516v1.806h11.645a2.238,2.238,0,0,1,2.253,2.247v18.672l.315.108a1.647,1.647,0,0,1,1.1,1.624v16.743a1.827,1.827,0,0,1-1.823,1.822h-41.322Zm-.046-19.739a1.235,1.235,0,0,0-1.2,1.264v16.649a1.249,1.249,0,0,0,1.234,1.253h41.341a1.244,1.244,0,0,0,1.248-1.263l0-16.65a1.249,1.249,0,0,0-1.235-1.253H1621.6Zm.576-.63h9.143v-2.3a6.234,6.234,0,0,0-1.574-4.135,4.95,4.95,0,0,1-1.254-3.248,4.854,4.854,0,0,1,2.618-4.263.535.535,0,0,1,.275-.082.5.5,0,0,1,.253.069.609.609,0,0,1,.317.527v3.415l.071.367.371.1,1.833.005.067-.006.331-.055.054-.33a3.088,3.088,0,0,0,.023-.827v-.1c-.007-.513-.02-1.32,0-2.562a.6.6,0,0,1,.286-.532.54.54,0,0,1,.535,0,4.783,4.783,0,0,1,2.638,4.278,4.942,4.942,0,0,1-1.255,3.244,6.058,6.058,0,0,0-1.574,4.139v2.294h11.913V694.8l-.318-.109a1.07,1.07,0,0,1-.727-1.023.576.576,0,0,0-.639-.58h-.054l-.052.012a4.681,4.681,0,0,0-2.457,1.468.766.766,0,0,1-.554.236c-.034,0-.131-.011-.131-.011l-.1,0a2.086,2.086,0,0,0-.269.017.425.425,0,0,1-.13-.028l.865-.878a5.089,5.089,0,0,1,2.538-1.4,1.217,1.217,0,0,1,.2-.036h.084a1.061,1.061,0,0,1,.648.222,1.141,1.141,0,0,1,.45.907v.18l.136.2.105.116.155.03a5.321,5.321,0,0,0,1.6.062c.559,0,1.294-.014,2.272-.014a.551.551,0,0,0,.577-.574v-.615a.718.718,0,0,1,.716-.716h.858a.735.735,0,0,1,.71.6l.071.382h2.5V688.9h-2.475l-.092.349a.847.847,0,0,1-.79.635h-.787a.737.737,0,0,1-.716-.566l-.087-.357H1646.8a5.267,5.267,0,0,0-4.911,4.548l-.162,1.222a.68.68,0,0,1-.317-.576,5.892,5.892,0,0,1,5.539-5.765h4.4a.784.784,0,0,1,.714.579l.1.343h1.029l.091-.349a.857.857,0,0,1,.794-.634h2.135a.782.782,0,0,1,.78.781v3.933a.782.782,0,0,1-.78.78h-2.154a.772.772,0,0,1-.776-.609l-.076-.375h-1.3l.121.565a1.109,1.109,0,0,1-.611,1.235l-.268.128v6.909h11.727V683.024a1.677,1.677,0,0,0-1.653-1.681h-37.631a1.54,1.54,0,0,0-1.223.612,1.289,1.289,0,0,0-.179,1.146Zm7.569-6.95.157.178a6.523,6.523,0,0,1,1.682,4.465v2.3h2.995v-2.3a6.734,6.734,0,0,1,1.688-4.476,4.325,4.325,0,0,0-.474-6.182l-.764-.621v3.528a1.1,1.1,0,0,1-1.09,1.086h-1.716a1.107,1.107,0,0,1-1.085-1.09v-3.544l-.768.643a4.313,4.313,0,0,0-1.551,3.339,4.476,4.476,0,0,0,.93,2.654Zm17.889.017v6.927h2.873v-6.934Zm-10.924-16.727a.946.946,0,0,0-.944.946v1.8h13.142v-1.8a.946.946,0,0,0-.945-.946Z" transform="translate(-1619.825 -677.512)" fill="#fff" stroke="#fff" stroke-width="0.5"/>
      <path id="Path_2693" data-name="Path 2693" d="M1641.24,717.487a1.93,1.93,0,1,1,0-3.86h10.822a1.93,1.93,0,1,1,0,3.86Zm-.014-3.443a1.545,1.545,0,0,0-1.5,1.5l0,.083a1.5,1.5,0,0,0,1.5,1.443h10.833a1.513,1.513,0,0,0,.014-3.027h-10.851Z" transform="translate(-1624.106 -685.447)" fill="#fff" stroke="#fff" stroke-width="0.5"/>
    </g>
  </g>
</svg>
