<svg xmlns="http://www.w3.org/2000/svg" width="90" height="90" viewBox="0 0 90 90">
  <g id="Group_4433" data-name="Group 4433" transform="translate(8337 21329)">
    <rect id="Rectangle_1070" data-name="Rectangle 1070" width="90" height="90" transform="translate(-8337 -21329)" fill="#7d7d7d" opacity="0"/>
    <g id="Group_4165" data-name="Group 4165" transform="translate(-8315 -21311)">
      <g id="Group_4156" data-name="Group 4156" transform="translate(0 0)">
        <path id="Path_2672" data-name="Path 2672" d="M1647.167,300.025a.9.9,0,0,1-.855-.87v-3.319a.9.9,0,0,1,.871-.856h12.567a.9.9,0,0,1,.856.87v3.391a.88.88,0,0,1-.861.784Zm-.052-.8H1659.8v-3.437h-12.684Z" transform="translate(-1639.709 -280.583)" fill="#fff"/>
        <path id="Path_2673" data-name="Path 2673" d="M1666.539,333.466a3.774,3.774,0,1,1,3.775-3.768A3.8,3.8,0,0,1,1666.539,333.466Zm-.062-6.465a2.691,2.691,0,0,0,.034,5.382,2.761,2.761,0,0,0,2.718-2.678v-.088a2.67,2.67,0,0,0-2.662-2.616h-.09Z" transform="translate(-1643.37 -287.467)" fill="#fff"/>
        <path id="Path_2674" data-name="Path 2674" d="M1650.266,333.466a3.774,3.774,0,1,1,0-7.549,3.762,3.762,0,0,1,3.772,3.772A3.8,3.8,0,0,1,1650.266,333.466ZM1650.2,327a2.691,2.691,0,0,0,.034,5.382,2.725,2.725,0,0,0,2.719-2.689,2.688,2.688,0,0,0-2.663-2.694h-.09Z" transform="translate(-1639.749 -287.467)" fill="#fff"/>
        <path id="Path_2675" data-name="Path 2675" d="M1644.372,331.152a.93.93,0,0,1-.923-.926v-1.854h-1.857a3.8,3.8,0,0,1-3.774-3.777V287.821a3.8,3.8,0,0,1,3.776-3.773h10.82v-4.915a.006.006,0,0,0,.007,0,3.081,3.081,0,0,1,.671-.244l.365-.082v-1.7a.8.8,0,0,1,.792-.652c.028,0,.131.009.131.009s.1-.009.131-.009a.8.8,0,0,1,.8.707l0,1.6.319.107a2.528,2.528,0,0,1,.724.32v4.848h10.687a3.8,3.8,0,0,1,3.774,3.776v33.554h5.471c2.694,0,4.707-2.778,4.707-5.262V311.2l-.306-.112a3.781,3.781,0,0,1-2.474-3.528v-8.41a3.8,3.8,0,0,1,2.476-3.594l.3-.113v-7.427l-5.124-2.561c-1.207-.6-1.069-1.017-1.016-1.172a.433.433,0,0,1,.457-.322,1.482,1.482,0,0,1,.629.174l5.632,2.782a.847.847,0,0,1,.509.813v7.654l.315.107a3.566,3.566,0,0,1,2.4,3.561v8.578a3.67,3.67,0,0,1-2.467,3.524l-.313.109v4.919a6.557,6.557,0,0,1-6.537,6.556h-4.728V324.6c0,2.318-1.348,3.658-3.8,3.775h-1.834v1.856a.924.924,0,1,1-1.848,0v-1.855H1645.3v1.856A.93.93,0,0,1,1644.372,331.152Zm-2.162-46.511a3.466,3.466,0,0,0-3.377,3.216v36.666c0,.042,0,.1,0,.158a2.736,2.736,0,0,0,2.724,2.673h25.971a2.409,2.409,0,0,0,2.4-2.21l.007-.008,0-37.8c0-1.659-1.191-2.691-3.11-2.691H1642.21Zm39.587,25.066a2.124,2.124,0,0,0,2.019-1.469h.093l.069-.466v-4.915h-4.618v4.915a2.138,2.138,0,0,0,2.116,1.934c.052,0,.106,0,.158-.005S1681.743,309.708,1681.8,309.708Zm-.208-12.965a2.473,2.473,0,0,0-2.228,2.57V301.7h4.548v-2.41a2.466,2.466,0,0,0-2.228-2.549l-.046,0Z" transform="translate(-1637.819 -276.463)" fill="#fff"/>
        <path id="Path_2676" data-name="Path 2676" d="M1646.621,308.427a.577.577,0,1,1,.012-1.153h13.009a.52.52,0,0,1,.487.55.606.606,0,0,1-.583.6Z" transform="translate(-1639.649 -283.318)" fill="#fff"/>
        <path id="Path_2677" data-name="Path 2677" d="M1646.621,313.792a.577.577,0,1,1,.012-1.153h12.918a.565.565,0,0,1,.576.568.6.6,0,0,1-.583.586Z" transform="translate(-1639.649 -284.512)" fill="#fff"/>
        <path id="Path_2678" data-name="Path 2678" d="M1646.621,319.246a.577.577,0,1,1,.012-1.153h12.918a.565.565,0,0,1,.576.567.6.6,0,0,1-.583.586Z" transform="translate(-1639.649 -285.726)" fill="#fff"/>
        <circle id="Ellipse_83" data-name="Ellipse 83" cx="0.924" cy="0.924" r="0.924" transform="translate(25.513 14.606)" fill="#fff"/>
      </g>
    </g>
  </g>
</svg>
