<svg xmlns="http://www.w3.org/2000/svg" width="430" height="459.947" viewBox="0 0 430 459.947"><defs><filter id="Path_86" x="317.769" y="137.439" width="112.231" height="119.508" filterUnits="userSpaceOnUse"><feOffset dy="3" input="SourceAlpha"></feOffset><feGaussianBlur stdDeviation="3" result="blur"></feGaussianBlur><feFlood floodOpacity="0.161"></feFlood><feComposite operator="in" in2="blur"></feComposite><feComposite in="SourceGraphic"></feComposite></filter><clipPath id="clip-path"><rect id="Rectangle_223" data-name="Rectangle 223" width="61.347" height="50.173" fill="#fff"></rect></clipPath><filter id="Path_85" x="271.943" y="63.203" width="130.88" height="130.947" filterUnits="userSpaceOnUse"><feOffset dy="3" input="SourceAlpha"></feOffset><feGaussianBlur stdDeviation="3" result="blur-2"></feGaussianBlur><feFlood floodOpacity="0.161"></feFlood><feComposite operator="in" in2="blur-2"></feComposite><feComposite in="SourceGraphic"></feComposite></filter><clipPath id="clip-path-2"><rect id="Rectangle_224" data-name="Rectangle 224" width="59.532" height="62.094" fill="#fff"></rect></clipPath><filter id="Path_84" x="173.099" y="0" width="191.652" height="184.309" filterUnits="userSpaceOnUse"><feOffset dy="3" input="SourceAlpha"></feOffset><feGaussianBlur stdDeviation="15" result="blur-3"></feGaussianBlur><feFlood floodOpacity="0.102"></feFlood><feComposite operator="in" in2="blur-3"></feComposite><feComposite in="SourceGraphic"></feComposite></filter><clipPath id="clip-path-3"><rect id="Rectangle_225" data-name="Rectangle 225" width="56.522" height="51.387" fill="#ececec"></rect></clipPath><filter id="Path_81" x="6" y="137.439" width="112.232" height="119.508" filterUnits="userSpaceOnUse"><feOffset dy="3" input="SourceAlpha"></feOffset><feGaussianBlur stdDeviation="3" result="blur-4"></feGaussianBlur><feFlood floodOpacity="0.161"></feFlood><feComposite operator="in" in2="blur-4"></feComposite><feComposite in="SourceGraphic"></feComposite></filter><clipPath id="clip-path-4"><rect id="Rectangle_226" data-name="Rectangle 226" width="41.203" height="31.456" fill="#fff"></rect></clipPath><filter id="Path_82" x="33.178" y="63.203" width="130.88" height="130.947" filterUnits="userSpaceOnUse"><feOffset dy="3" input="SourceAlpha"></feOffset><feGaussianBlur stdDeviation="3" result="blur-5"></feGaussianBlur><feFlood floodOpacity="0.161"></feFlood><feComposite operator="in" in2="blur-5"></feComposite><feComposite in="SourceGraphic"></feComposite></filter><clipPath id="clip-path-5"><rect id="Rectangle_227" data-name="Rectangle 227" width="48.899" height="34.485" fill="#fff"></rect></clipPath><filter id="Path_83" x="107.576" y="36" width="119.652" height="112.309" filterUnits="userSpaceOnUse"><feOffset dy="3" input="SourceAlpha"></feOffset><feGaussianBlur stdDeviation="3" result="blur-6"></feGaussianBlur><feFlood floodOpacity="0.161"></feFlood><feComposite operator="in" in2="blur-6"></feComposite><feComposite in="SourceGraphic"></feComposite></filter><clipPath id="clip-path-6"><rect id="Rectangle_229" data-name="Rectangle 229" width="51.387" height="51.387" fill="#fff"></rect></clipPath><filter id="Path_87" x="317.49" y="238.947" width="112.509" height="119.998" filterUnits="userSpaceOnUse"><feOffset dy="3" input="SourceAlpha"></feOffset><feGaussianBlur stdDeviation="3" result="blur-7"></feGaussianBlur><feFlood floodOpacity="0.161"></feFlood><feComposite operator="in" in2="blur-7"></feComposite><feComposite in="SourceGraphic"></feComposite></filter><filter id="Path_80" x="0" y="232.947" width="124.51" height="131.998" filterUnits="userSpaceOnUse"><feOffset dy="3" input="SourceAlpha"></feOffset><feGaussianBlur stdDeviation="5" result="blur-8"></feGaussianBlur><feFlood floodOpacity="0.161"></feFlood><feComposite operator="in" in2="blur-8"></feComposite><feComposite in="SourceGraphic"></feComposite></filter><clipPath id="clip-path-7"><rect id="Rectangle_232" data-name="Rectangle 232" width="56.155" height="37.423" fill="#fff"></rect></clipPath><filter id="Path_79" x="33.456" y="302.236" width="130.89" height="130.621" filterUnits="userSpaceOnUse"><feOffset dy="3" input="SourceAlpha"></feOffset><feGaussianBlur stdDeviation="3" result="blur-9"></feGaussianBlur><feFlood floodOpacity="0.161"></feFlood><feComposite operator="in" in2="blur-9"></feComposite><feComposite in="SourceGraphic"></feComposite></filter><clipPath id="clip-path-8"><rect id="Rectangle_233" data-name="Rectangle 233" width="36.383" height="56.742" fill="#fff"></rect></clipPath><filter id="Path_78" x="107.625" y="347.803" width="119.376" height="112.145" filterUnits="userSpaceOnUse"><feOffset dy="3" input="SourceAlpha"></feOffset><feGaussianBlur stdDeviation="3" result="blur-10"></feGaussianBlur><feFlood floodOpacity="0.161"></feFlood><feComposite operator="in" in2="blur-10"></feComposite><feComposite in="SourceGraphic"></feComposite></filter><clipPath id="clip-path-9"><rect id="Rectangle_234" data-name="Rectangle 234" width="68.759" height="57.896" fill="#fff"></rect></clipPath><filter id="Path_76" x="271.654" y="302.236" width="130.891" height="130.621" filterUnits="userSpaceOnUse"><feOffset dy="3" input="SourceAlpha"></feOffset><feGaussianBlur stdDeviation="3" result="blur-11"></feGaussianBlur><feFlood floodOpacity="0.161"></feFlood><feComposite operator="in" in2="blur-11"></feComposite><feComposite in="SourceGraphic"></feComposite></filter><clipPath id="clip-path-10"><rect id="Rectangle_235" data-name="Rectangle 235" width="38.223" height="62.651" fill="#fff"></rect></clipPath><filter id="Path_77" x="208.999" y="347.801" width="119.375" height="112.146" filterUnits="userSpaceOnUse"><feOffset dy="3" input="SourceAlpha"></feOffset><feGaussianBlur stdDeviation="3" result="blur-12"></feGaussianBlur><feFlood floodOpacity="0.161"></feFlood><feComposite operator="in" in2="blur-12"></feComposite><feComposite in="SourceGraphic"></feComposite></filter><clipPath id="clip-path-11"><rect id="Rectangle_228" data-name="Rectangle 228" width="70.301" height="38.829" fill="#fff"></rect></clipPath></defs><g id="Group_1629" data-name="Group 1629" transform="translate(-4828 -1570)"><g id="Group_1620" data-index="11" data-name="Group 1620" class=""><g transform="matrix(1, 0, 0, 1, 4828, 1570)" filter="url(#Path_86)"><path id="Path_86-2" data-name="Path 86" d="M420.252,207.64H342.832a124.991,124.991,0,0,0-16.811-62.8l67.055-38.71a201.919,201.919,0,0,1,27.178,101.51" transform="translate(0.75 37.31)"></path></g><g id="Group_97" data-name="Group 97" transform="translate(5227.244 1734.15) rotate(79)"><g id="Group_97-2" data-name="Group 97" transform="translate(0 0)" clipPath="url(#clip-path)"><path id="Path_62" data-name="Path 62" d="M60.854,35.176,52.83,26.384A30.4,30.4,0,0,0,41.7,18.665l-9.578-3.847A2.476,2.476,0,0,1,30.6,12.872l-.429-3a.684.684,0,0,0-.56-.578l-1-.172a.7.7,0,0,0-.686.275l-2.415,3.276a.541.541,0,0,1-.756.114l-.817-.6a.54.54,0,0,1-.216-.374l-.052-.457a.6.6,0,0,0-.241-.416l-.2-.147a.435.435,0,0,0-.666.2l-.207.556-1.68-1.119-.735.8-.916-.842.736-.8L15.935,5.94,5.628,0,4.305,1.438,7.266,4.477l.308-.114.343.356.056-.4.378.042.206.429L8.784,4.5l.374.2.034.428.356-.133.306.316-.145.353.426.048.184.381-.3.215.421.221.031.38-.4.042.345.356-.118.289.585.588,3.5,3.543a3.692,3.692,0,0,0-.339.374l0,.009-.007.007a3.528,3.528,0,0,0-.247.417L9.314,10.206l-.68-.357-.241.2-.442-.223.078.395-.371.083-.336-.338-.118.349-.418-.063-.172-.393-.294.243-.393-.2.022-.381-.418.095-.3-.3.212-.3-.471-.07-.153-.349.364-.171L4.744,8.2l.019-.328L.983,5.942,0,7.632l8.721,8.09,4.618,2.58.546-.938,1.075.625-.546.939L15.98,20.2l-.471.362a.435.435,0,0,0,.007.694l.2.147a.6.6,0,0,0,.469.107l.451-.085a.543.543,0,0,1,.421.1l.817.6a.541.541,0,0,1,.114.756l-2.415,3.276a.7.7,0,0,0-.06.736l.459.9a.685.685,0,0,0,.718.366l2.989-.476a2.474,2.474,0,0,1,2.311.884l6.506,8.013a30.4,30.4,0,0,0,10.662,8.347l10.772,5.067a1.89,1.89,0,0,0,1.72-3.365L50.153,45.8a1.159,1.159,0,0,0-.407-.406L41.026,40.3a35.7,35.7,0,0,1-8.492-6.9l-6.3-6.973a1.728,1.728,0,0,0-.534-.4l-4.8-5.592a.562.562,0,0,1-.005-.725l.675-.815a.372.372,0,0,0-.066-.537l-.645-.476-.638.042L20,18.044l-.452-1.315-.069.027a3.61,3.61,0,0,0,.331-.382l.005-.009.007-.009a3.5,3.5,0,0,0,.267-.428L20.085,16l1.4.045-.042.229.149.622.645.476a.372.372,0,0,0,.532-.1l.579-.886a.563.563,0,0,1,.695-.208l6.76,2.931a1.734,1.734,0,0,0,.539.392l8.523,3.956a35.716,35.716,0,0,1,9.1,6.074l7.441,6.826a1.144,1.144,0,0,0,.5.255l1.246,1.2a1.891,1.891,0,0,0,2.706-2.638" transform="translate(0 0.001)" fill="#fff"></path></g></g></g><g id="Component_24_2" data-index="12" data-name="Component 24 – 2" transform="translate(5108.944 1639.203)" class=""><g transform="matrix(1, 0, 0, 1, -280.94, -69.2)" filter="url(#Path_85)"><path id="Path_85-2" data-name="Path 85" d="M390.98,102.736l-67.055,38.71A126.133,126.133,0,0,0,278.1,95.555L316.809,28.5a203.824,203.824,0,0,1,74.17,74.236" transform="translate(2.84 40.7)"></path></g><g id="Group_98" data-name="Group 98" transform="translate(59.662 24.25) rotate(48)"><g id="Group_99" data-name="Group 99" transform="translate(0 0)" clipPath="url(#clip-path-2)"><path id="Path_63" data-name="Path 63" d="M58.748,4.246a9.3,9.3,0,0,0,.784-.559l-.869-.365.613-.737-.947-.116.4-.869-.939.147.147-.939-.869.388L56.947.256,56.21.869,55.845,0l-.559.784L54.712.031,54.37.924,53.625.349l-.116.947-.869-.38.109.947-.924-.21.186.908-.023.023-.9-.186.186.9-.023.023-.9-.186.186.9-.023.023L49.791,3.9l-.179-.031.179.846.008.054-.008.016-.008.008-.908-.186.186.9-.016.016v.008l-.908-.186.186.9-.016.023L47.4,6.085l.186.9-.016.023-.784-.163-.124-.023.124.582v.334l-.862-.179.186.9-.016.023-.4-.085-.5-.1.186.9-.016.023-.908-.186.186.9-.016.023-.908-.186.186.9-.016.023-.38-.078-.528-.109.186.9-.016.023h-.008l-.9-.186.186.9-.023.023-.9-.186.186.9-.016.023-.908-.186.186.908-.062.062-.784-.163.163.792-.054.047-.023.016-.9-.186.186.908-.023.016-.9-.186.186.908-.023.016-.9-.186L38,16.58l-.023.016-.9-.186.186.908-.838-.171.171.838-.07.07-.023.016-.9-.186.186.9v.008l-.023.016-.9-.186.186.9v.008l-.023.016-.9-.186.186.9-.023.023-.9-.186.186.908-.023.016-.9-.186.186.908-.031.031-.893-.186.186.893-.016.016-.893-.186.179.9-.016.016-.893-.186.179.9-.031.031-.9-.186.186.9-.023.023-.893-.186.179.9-.008.008-.023.031-.908-.186.186.9-.016.023-.908-.186.186.9-.016.016-.908-.194.186.908-.016.016-.908-.186.186.908-.016.016-.908-.186.023.093L21.6,24.606a14.381,14.381,0,0,0-.559-4.549c-.512-1.157-3.508-3.827-3.974-4.292a1.1,1.1,0,0,0-1.5-.179.487.487,0,0,0-.109.21V15.8a4.621,4.621,0,0,0,.155,2.08c.179.5,3.027,2.8,3.175,3.687a17.086,17.086,0,0,1-.644,4.285c-.233.163-.466.326-.706.489l-3.9-4.168a1.276,1.276,0,0,0-.256-.2,1.114,1.114,0,0,0-.613-.217c-.039,0-.078-.008-.116-.008h-.016c-.031,0-.054.008-.078.008a1.159,1.159,0,0,0-.163.016,1.262,1.262,0,0,0-.2.054c-.016,0-.023.008-.031.008a.8.8,0,0,0-.163.078,1.977,1.977,0,0,0-.295.2,1.349,1.349,0,0,0-.373,1.351,2.567,2.567,0,0,0,.023.45l-.241,4.75a4.3,4.3,0,0,0-2.243.784c-.776.784-.675,3-.38,4.06A15.65,15.65,0,0,0,6.82,35.473c-.3-.1-.652-.194-.924-.264-.109-.023-.194-.047-.272-.062a6.623,6.623,0,0,0-1.18,2.065c.054.054.116.124.194.194.225.225.512.52.706.706a3.937,3.937,0,0,0-.279,1.04A9.907,9.907,0,0,0,6,43.188a3.267,3.267,0,0,1-.784.536c-.373.054-.978-.7-1.382-.582-.543.163.039.908.039,1.731a9.107,9.107,0,0,1-.466,1.615C2.2,48,.129,50.655.013,51.439a3.4,3.4,0,0,0,.947,2.2,13.508,13.508,0,0,0-.815,3.377,1,1,0,0,0,.093.326l.047.093a2.554,2.554,0,0,0,.179.3.279.279,0,0,1,.054.078,4.983,4.983,0,0,0,.342.4.63.63,0,0,0,.07.078c.109.116.233.241.357.365l.039.039A34.03,34.03,0,0,0,5.6,61.941a1.066,1.066,0,0,0,1.273-.132l12.07-12.07a1.363,1.363,0,0,0,1.948.031c.435-.435,6.28-5.7,6.373-6.373a8.823,8.823,0,0,1,.45-2.065l.179.186a1.371,1.371,0,0,0,1.933.062.061.061,0,0,1,.031-.031,1.369,1.369,0,0,0,.031-1.9l-.342-.365,2.01-2.01c.869-.869,1.063-1.646.295-2.414l-.621-.621.085.023-.179-.908.016-.016.908.186-.186-.908.016-.016.908.186-.186-.908.016-.016.908.186-.186-.908v-.008l.016-.016h.008l.9.194-.186-.908.016-.016.908.179-.186-.908.016-.016.908.186-.186-.908.016-.016.908.186-.186-.908.016-.016.908.186-.186-.908.016-.016.908.186-.186-.908.016-.016.908.186-.186-.908.016-.016.908.186-.186-.908.016-.016.908.186-.186-.908L40,24.482l.908.186-.186-.908.016-.016.908.186-.186-.908.016-.016.908.186-.186-.908.016-.016.908.186-.186-.908.016-.016.559.116.349.07-.186-.908.016-.016.908.186-.186-.908.016-.016.908.186-.186-.908.016-.016.528.109.38.078-.186-.908.016-.016.885.179.023.008-.023-.132-.163-.768V17.86l.023-.016.14.031.761.155-.186-.908.016-.016.908.186-.186-.908.016-.016.908.186-.186-.908.016-.016.908.186-.186-.908.016-.016.2.039.706.147-.186-.9v-.008l.016-.016h.008l.9.186-.186-.908.016-.016.908.186-.186-.908.016-.016.908.186-.186-.908.016-.016.908.186-.186-.908.016-.016.908.186L54,10.487l.016-.016.908.186-.186-.908.016-.016.908.186-.186-.9V9.012L55.488,9H55.5l.9.186-.179-.908.016-.016.9.186-.179-.908.016-.016.9.186-.2-.924.947.109-.38-.862.947-.124-.574-.745.885-.349a7.606,7.606,0,0,0-.745-.567M11.5,50.2l-.885,3.919a4.794,4.794,0,0,1-.652,1.467c-.8,1.133-2.383,3.353-2.779,3.741-.528.528-1.094.931-1.8.326-.085-.078-.186-.171-.295-.264l-.047-.047c-.093-.085-.186-.163-.279-.256-.062-.054-.124-.116-.194-.179-.054-.054-.109-.109-.163-.155-.054-.062-.116-.116-.171-.171a13.722,13.722,0,0,1-1.312-1.4C2.295,56.267,4.693,51.393,5,50.7s.784-1.234,1.234-.854a2.731,2.731,0,0,0,1.917.21c.256-.093-.357-1.382-.466-1.754s.147-1.157,1.172-.947a4.255,4.255,0,0,1,1.11.319,3.087,3.087,0,0,1,.652.6c.047.047.085.093.124.14a.468.468,0,0,0,.062.062c.039.047.07.085.1.124a.338.338,0,0,0,.047.054c.031.039.062.07.078.093.008.008.023.023.023.031a.344.344,0,0,1,.039.047,1.672,1.672,0,0,1,.4,1.375m2.686-21.812a5.89,5.89,0,0,1-.668.07c.023-.5.07-1.374.116-2.181l1.506,1.607a4.424,4.424,0,0,1-.955.5M53.354,6.893a.5.5,0,0,1-.714,0,.5.5,0,1,1,.714-.714.5.5,0,0,1,0,.714" transform="translate(0 0)" fill="#fff"></path></g></g></g><g id="Component_23_2" data-index="1" data-name="Component 23 – 2" transform="translate(5046.099 1612)" class=""><g transform="matrix(1, 0, 0, 1, -218.1, -42)" filter="url(#Path_84)"><path id="Path_84-2" data-name="Path 84" d="M313.933,27.254,275.224,94.309A125.023,125.023,0,0,0,212.28,77.421V0A201.971,201.971,0,0,1,313.933,27.254" transform="translate(5.82 42)"></path></g><g id="Group_99-2" data-name="Group 99" transform="translate(6.485 19.008)"><g id="Group_101" data-name="Group 101" transform="translate(0 0)" clipPath="url(#clip-path-3)"><path id="Path_64" data-name="Path 64" d="M56.522,9.519,56.51,6.094,56.5,4.262a3.413,3.413,0,0,0-3.427-3.4l-.689,0L50.72.866l-13.9.049a.564.564,0,0,0-.55-.447l-.533,0h0L32.7.48V.426A.427.427,0,0,0,32.269,0l-.6,0a.43.43,0,0,0-.427.429V.485l-.661,0-.618,0a.563.563,0,0,0-.546.451L26.045.952a.976.976,0,0,0-.973.98l-2.29.007-2.288.516V3l-.862,0-6.35.022L10.175,4.209v.106l-.759.238-.149.205v.4l-.828.289a.359.359,0,0,0-.24.34v.045H.31a.31.31,0,1,0,0,.621H8.2v.138a.357.357,0,0,0,.242.338l.829.284,0,.456.151.2.76.234v.105l3.119,1.164,6.35-.022.862,0V9.328l0,.563,2.293.5,2.29-.007.009,2.532a.852.852,0,0,0,.854.848l.739,0a.368.368,0,0,0,.366.342l.672,0a3.789,3.789,0,0,1,2.98,1.431l.7.882a1.914,1.914,0,0,0,.945.637l.561.082.81,0c.018.016.04.027.056.044a1.222,1.222,0,0,1,.143.213.982.982,0,0,1,.089.147,1.168,1.168,0,0,1,.091.441l.009,2.279a.9.9,0,0,0,.9.9l1.691-.006.141.178.6.126a.184.184,0,0,0,.19-.091,1.553,1.553,0,0,1,.82,1.175L39.93,34.978a.21.21,0,0,1-.208.234h-.135a1.041,1.041,0,0,0-1.038,1.045v.286l-1.14,0a2.659,2.659,0,0,0-2.43,1.6,4.564,4.564,0,0,0-2.618,4.119v8.7a.416.416,0,0,0,.416.416H50.826a.45.45,0,0,0,.45-.451v-4.45a1.2,1.2,0,0,0,.031-.152l-.02-5.742a.4.4,0,0,0-.011-.049V39.185a.235.235,0,0,0,.005-.027l-.005-1.46a1.2,1.2,0,0,0-1.2-1.195l-1.621.005v-.242a1.041,1.041,0,0,0-1.025-1.037.219.219,0,0,1-.231-.216l.053-2.088a57.817,57.817,0,0,0-1.4-14.225h0a1.346,1.346,0,0,1,1.308-1.642l2.253-.007a3.033,3.033,0,0,0,3.022-3.043v-.37a4.105,4.105,0,0,0,4.09-4.119" transform="translate(0 0)" fill="#ececec"></path></g></g></g><g id="Group_1627" data-index="4" data-name="Group 1627" class=""><g transform="matrix(1, 0, 0, 1, 4828, 1570)" filter="url(#Path_81)"><path id="Path_81-2" data-name="Path 81" d="M94.232,144.84a124.991,124.991,0,0,0-16.811,62.8H0A201.919,201.919,0,0,1,27.178,106.13Z" transform="translate(15 37.31)"></path></g><g id="Group_100" data-name="Group 100" transform="translate(4868.113 1754.891)"><g id="Group_103" data-name="Group 103" transform="translate(0 0)" clipPath="url(#clip-path-4)"><path id="Path_65" data-name="Path 65" d="M38.159,3.811H33.777l-.307-.792h-2.5l-.308.792H26.047L25.362,1.25A.929.929,0,0,0,24.5.6s-.434-.038-1.09-.078V.33A.329.329,0,0,0,23.078,0H18.125A.329.329,0,0,0,17.8.33v.2c-.651.037-1.08.071-1.08.071a.929.929,0,0,0-.864.648l-.685,2.561h-4.59l-.308-.792h-2.5l-.307.792H3.045A3.045,3.045,0,0,0,0,6.856V28.412a3.045,3.045,0,0,0,3.045,3.044H38.159A3.044,3.044,0,0,0,41.2,28.412V6.856a3.045,3.045,0,0,0-3.044-3.044m-21.622,0,.32-1.6a.685.685,0,0,1,.636-.547s.111.011.3.025v.06a.33.33,0,0,0,.33.33h4.953a.33.33,0,0,0,.33-.33V1.7l.312-.03a.687.687,0,0,1,.637.547l.319,1.6Z" transform="translate(0 0)" fill="#fff" fillRule="evenodd"></path></g></g></g><g id="Group_1628" data-index="3" data-name="Group 1628" class=""><g transform="matrix(1, 0, 0, 1, 4828, 1570)" filter="url(#Path_82)"><path id="Path_82-2" data-name="Path 82" d="M141.3,95.555a126.133,126.133,0,0,0-45.825,45.892L28.42,102.736A203.824,203.824,0,0,1,102.59,28.5Z" transform="translate(13.76 40.7)"></path></g><g id="Group_101-2" data-name="Group 101" transform="translate(4909.316 1684.594)"><g id="Group_105" data-name="Group 105" clipPath="url(#clip-path-5)"><path id="Path_66" data-name="Path 66" d="M48.9,5.719S48.359,1.344,45.068.977L33.686.8a3.294,3.294,0,0,0-2.082.712l-1.582-.1a2.12,2.12,0,0,0,.04-.686c-.04-.4-.488-.341-.488-.341l-.6-.251L22.541,0l-.685.184h-.292a.238.238,0,0,0-.2.251v.686l.381.037-.17.159-6.535-.04a3.161,3.161,0,0,0-2.49-1L3.676.344A3.629,3.629,0,0,0,1.62,1,6.45,6.45,0,0,0,.185,3.926C.04,4.756,0,12.833,0,12.833V23.16s.188,2.971,2.239,4.4a5.3,5.3,0,0,0,3.057.868l.092.211,3.794,1.582.067,1.711s.4.434,2.239.37,1.752-.318,1.752-.318v-.657l2.912.764.04,2.082s.5.408,2.4.289,1.831-.37,1.831-.37l.014-1.252,1.311-.021,16.722-1.579v1.124a5.921,5.921,0,0,0,3.97.069V30.826a5.732,5.732,0,0,0,4.673-2.476,9.934,9.934,0,0,0,1.357-5.613l.315-10.774ZM4.176,6.757l.645.054.251,1.672a.641.641,0,0,0-.119.4c.035.6.329.567.329.567l.119.5.948.041.237-.2v.619s-2.978.107-3.189.107-.2.13-.2.13a4.831,4.831,0,0,1-.236,1.185s-.277,8.906-.277,9.262.144.382.144.382h.711s.029,1.515,0,2.5a2.946,2.946,0,0,0,.778,1.83,3.838,3.838,0,0,0,.607.882,7.258,7.258,0,0,1-1.633-.46,4,4,0,0,1-1.57-2.993l0-16.281a17.891,17.891,0,0,1,.2-2.689A3.171,3.171,0,0,1,2.9,2.188h3.69a.876.876,0,0,0-.436.538L5.124,6.653H4.045ZM14.6,28.8a.887.887,0,0,0-.355.119l-.185.118a.244.244,0,0,0-.263.159l-1.385-.37v-.133l2.189-.078Zm13.244,1.387s-7.316.669-7.51.649a.657.657,0,0,1-.464-.184L27.841,30Zm3.687-.377V29.64l2.917-.192s.2.052.2.1-3.118.256-3.118.256M46.5,25.557c-.1.329-.491,2.376-2.094,3.017a4.318,4.318,0,0,1-.856.291c-.119.013-2.03.065-2.03.065V28.1a3.1,3.1,0,0,0,1.133-2.134c.1-1.383.355-4.807.355-4.807h1.515s.631-.081.619.289-.052,1.8-.052,1.8a.535.535,0,0,0,.538.4c.462.012.948,0,.948,0a12.9,12.9,0,0,1-.078,1.909M47.09,7.792l-.351,9.537s-.878.009-1.3,0a.34.34,0,0,0-.377.386s.043,1.476.043,1.8-.228.315-.228.315H43.095L43.41,7.984c.08-.061.028-.211-.14-.28a7.108,7.108,0,0,0-.958-.159l.178-.254s.325-.009.738-.019c1.062-.021.922-.247.86-.3a10.472,10.472,0,0,0-1.273-.009A13.043,13.043,0,0,0,41.77,4.55c-.229-.465-1.117-1.985-1.117-1.985s3.381.2,4.33.21,1.416,1.079,1.828,1.9a9.344,9.344,0,0,1,.28,3.118" fill="#fff" fillRule="evenodd"></path></g></g></g><g id="Group_1617" data-index="2" data-name="Group 1617" class=""><g transform="matrix(1, 0, 0, 1, 4828, 1570)" filter="url(#Path_83)"><path id="Path_83-2" data-name="Path 83" d="M207.633,0V77.421A125.016,125.016,0,0,0,144.69,94.309L105.98,27.254A201.971,201.971,0,0,1,207.633,0" transform="translate(10.6 42)"></path></g><g id="Group_103-2" data-name="Group 103" transform="translate(4977.895 1631.008)"><g id="Group_109" data-name="Group 109" clipPath="url(#clip-path-6)"><path id="Path_68" data-name="Path 68" d="M48.792,24.923a8.494,8.494,0,0,1,1.131.662,7.114,7.114,0,0,0,1.465,0v-.006A12.322,12.322,0,0,0,50.77,23.8a5.928,5.928,0,0,0-.911-1.625,7.427,7.427,0,0,0-2.467-.694.707.707,0,0,1-.674-.584c-.174-.707.892-1.162,1.329-1.092A7.793,7.793,0,0,1,49.3,20.2a6.97,6.97,0,0,0,1.426-.328,12.252,12.252,0,0,0-1-1.606,5.806,5.806,0,0,0-1.253-1.381,7.548,7.548,0,0,0-2.557-.122.71.71,0,0,1-.79-.418c-.321-.655.6-1.335,1.054-1.362a7.344,7.344,0,0,1,1.3.1,6.493,6.493,0,0,0,1.31-.642.026.026,0,0,0-.005-.014A13.4,13.4,0,0,0,47.469,13.1a6.221,6.221,0,0,0-1.529-1.066,7.621,7.621,0,0,0-2.524.449.707.707,0,0,1-.867-.225c-.457-.565.3-1.439.726-1.567a7.984,7.984,0,0,1,1.3-.186,6.763,6.763,0,0,0,1.137-.919c-.006-.006-.013-.006-.013-.014a12.546,12.546,0,0,0-1.58-1,5.9,5.9,0,0,0-1.728-.7,7.427,7.427,0,0,0-2.357,1,.779.779,0,0,1-.945-.071c-.572-.449.02-1.433.411-1.652a8.8,8.8,0,0,1,1.22-.468,6.738,6.738,0,0,0,.906-1.143A10.85,10.85,0,0,0,39.844,4.9a5.87,5.87,0,0,0-1.837-.3A7.449,7.449,0,0,0,35.926,6.1a.709.709,0,0,1-.88.167c-.655-.308-.353-1.42-.019-1.721a8.649,8.649,0,0,1,1.085-.732,6.72,6.72,0,0,0,.63-1.317.027.027,0,0,1-.014-.006,13.281,13.281,0,0,0-1.863-.218A6.184,6.184,0,0,0,33,2.39a7.416,7.416,0,0,0-1.689,1.921.709.709,0,0,1-.823.36c-.707-.154-.661-1.3-.4-1.671a8.01,8.01,0,0,1,.892-.957A6.987,6.987,0,0,0,31.3.617a11.342,11.342,0,0,0-1.882.2,6.242,6.242,0,0,0-1.786.533A7.636,7.636,0,0,0,26.413,3.6a.706.706,0,0,1-.719.533c-.726.006-.938-1.13-.771-1.541a8.408,8.408,0,0,1,.661-1.131A6.717,6.717,0,0,0,25.578,0h-.006A12.642,12.642,0,0,0,23.8.617a5.737,5.737,0,0,0-1.624.912,7.371,7.371,0,0,0-.694,2.46.712.712,0,0,1-.584.681c-.707.167-1.163-.893-1.092-1.33A7.5,7.5,0,0,1,20.2,2.088,6.97,6.97,0,0,0,19.867.662a12.656,12.656,0,0,0-1.605,1,5.886,5.886,0,0,0-1.381,1.258,7.342,7.342,0,0,0-.122,2.557.707.707,0,0,1-.424.79c-.649.322-1.33-.6-1.355-1.053a7.279,7.279,0,0,1,.1-1.3,6.333,6.333,0,0,0-.642-1.31.02.02,0,0,0-.013.006A13.2,13.2,0,0,0,13.1,3.918,6.252,6.252,0,0,0,12.03,5.448a7.591,7.591,0,0,0,.45,2.524.711.711,0,0,1-.225.867c-.565.457-1.439-.3-1.568-.726a8.11,8.11,0,0,1-.186-1.3,6.708,6.708,0,0,0-.919-1.137c-.006.006-.006.013-.013.013a12.422,12.422,0,0,0-1,1.58A5.819,5.819,0,0,0,7.875,9a7.467,7.467,0,0,0,1,2.358.717.717,0,0,1-.032.9c-.45.572-1.471.026-1.69-.366a8.6,8.6,0,0,1-.468-1.22,7.226,7.226,0,0,0-1.137-.912c-.006,0-.006.006-.014.013A11.977,11.977,0,0,0,4.9,11.543a6.19,6.19,0,0,0-.3,1.837,7.61,7.61,0,0,0,1.5,2.081.709.709,0,0,1,.168.88c-.309.655-1.42.353-1.722.02a8.729,8.729,0,0,1-.732-1.085,6.832,6.832,0,0,0-1.316-.63.022.022,0,0,1-.006.013,11.355,11.355,0,0,0-.218,1.863,6.18,6.18,0,0,0,.121,1.863,7.683,7.683,0,0,0,1.921,1.69.707.707,0,0,1,.36.822c-.154.707-1.3.662-1.67.405a7.577,7.577,0,0,1-.957-.893,6.987,6.987,0,0,0-1.426-.321,11.187,11.187,0,0,0,.2,1.882,6,6,0,0,0,.534,1.786A7.606,7.606,0,0,0,3.6,24.974a.712.712,0,0,1,.534.719c0,.726-1.131.939-1.542.771A8.265,8.265,0,0,1,1.458,25.8,7.027,7.027,0,0,0,0,25.8v.006a13.088,13.088,0,0,0,.61,1.779,5.891,5.891,0,0,0,.919,1.625,7.452,7.452,0,0,0,2.461.694.715.715,0,0,1,.68.584c.168.707-.892,1.162-1.329,1.092a7.56,7.56,0,0,1-1.253-.392,6.985,6.985,0,0,0-1.426.328,12.786,12.786,0,0,0,1,1.605,5.942,5.942,0,0,0,1.259,1.382,7.539,7.539,0,0,0,2.557.122.709.709,0,0,1,.79.418c.321.655-.6,1.335-1.054,1.361a7.455,7.455,0,0,1-1.311-.1,6.492,6.492,0,0,0-1.3.642.023.023,0,0,0,.006.014A13.268,13.268,0,0,0,3.918,38.29a6.252,6.252,0,0,0,1.528,1.066,7.6,7.6,0,0,0,2.525-.45.712.712,0,0,1,.867.225c.456.565-.3,1.439-.726,1.568a7.985,7.985,0,0,1-1.3.186,6.7,6.7,0,0,0-1.138.919c.006.006.014.006.014.013a12.342,12.342,0,0,0,1.58,1,5.743,5.743,0,0,0,1.728.7,7.472,7.472,0,0,0,2.357-1,.719.719,0,0,1,.9.032c.572.45.025,1.471-.366,1.69a8.65,8.65,0,0,1-1.221.468,6.879,6.879,0,0,0-.911,1.137c0,.007.005.007.013.014a11.974,11.974,0,0,0,1.767.63,5.925,5.925,0,0,0,1.843.3,7.337,7.337,0,0,0,2.075-1.49.712.712,0,0,1,.881-.167c.661.308.352,1.42.025,1.721a8.036,8.036,0,0,1-1.085.732,6.641,6.641,0,0,0-.63,1.316.021.021,0,0,1,.013.007,13.194,13.194,0,0,0,1.863.218A6.224,6.224,0,0,0,18.383,49a7.641,7.641,0,0,0,1.69-1.921.774.774,0,0,1,.874-.347c.712.155.61,1.291.352,1.658a7.38,7.38,0,0,1-.9.957,6.664,6.664,0,0,0-.314,1.425,11.007,11.007,0,0,0,1.875-.2,6.189,6.189,0,0,0,1.793-.534,7.617,7.617,0,0,0,1.22-2.254.706.706,0,0,1,.719-.534c.726-.005.938,1.132.77,1.542a7.822,7.822,0,0,1-.668,1.131,7.175,7.175,0,0,0,.007,1.464h.005a12.187,12.187,0,0,0,1.779-.617,5.71,5.71,0,0,0,1.625-.911,7.4,7.4,0,0,0,.694-2.461.712.712,0,0,1,.584-.68c.707-.168,1.162.892,1.092,1.329a7.592,7.592,0,0,1-.391,1.253,7.02,7.02,0,0,0,.327,1.426,12.722,12.722,0,0,0,1.606-1,5.956,5.956,0,0,0,1.381-1.258,7.5,7.5,0,0,0,.122-2.557.71.71,0,0,1,.418-.79c.655-.322,1.336.6,1.362,1.054a8.061,8.061,0,0,1-.1,1.3,6.53,6.53,0,0,0,.641,1.311.021.021,0,0,0,.014-.006,13.041,13.041,0,0,0,1.329-1.317,6.171,6.171,0,0,0,1.066-1.528,7.616,7.616,0,0,0-.449-2.524.713.713,0,0,1,.225-.868c.565-.456,1.439.3,1.567.727a8.012,8.012,0,0,1,.187,1.3A6.686,6.686,0,0,0,41.8,45.71c.007-.006.007-.013.014-.013a12.451,12.451,0,0,0,.995-1.58,5.833,5.833,0,0,0,.7-1.729,7.456,7.456,0,0,0-1-2.356.719.719,0,0,1,.032-.9c.449-.572,1.465-.024,1.683.367a8.115,8.115,0,0,1,.475,1.22,6.88,6.88,0,0,0,1.137.911c.006,0,.006-.006.013-.012a12.745,12.745,0,0,0,.63-1.773,6.076,6.076,0,0,0,.3-1.837,7.414,7.414,0,0,0-1.489-2.081.7.7,0,0,1-.168-.88c.308-.656,1.42-.353,1.721-.02a8.08,8.08,0,0,1,.733,1.085,6.688,6.688,0,0,0,1.316.631.023.023,0,0,1,.006-.014,13.193,13.193,0,0,0,.218-1.863A6.131,6.131,0,0,0,49,33a7.623,7.623,0,0,0-1.921-1.69.706.706,0,0,1-.359-.822c.154-.707,1.3-.662,1.67-.405a7.989,7.989,0,0,1,.957.893,6.987,6.987,0,0,0,1.426.321,11.438,11.438,0,0,0-.206-1.882,6.076,6.076,0,0,0-.526-1.786,7.678,7.678,0,0,0-2.255-1.22.706.706,0,0,1-.533-.72c-.006-.726,1.131-.938,1.541-.771M25.694,31.3a5.6,5.6,0,1,1,5.6-5.6,5.611,5.611,0,0,1-5.6,5.6" transform="translate(0 0)" fill="#fff"></path></g></g></g><g id="Group_1621" data-index="10" data-name="Group 1621" class=""><g transform="matrix(1, 0, 0, 1, 4828, 1570)" filter="url(#Path_87)"><path id="Path_87-2" data-name="Path 87" d="M420.24,212.28a201.961,201.961,0,0,1-27.455,102l-67.055-38.71a125.016,125.016,0,0,0,17.089-63.287Z" transform="translate(0.76 32.67)"></path></g><g id="Group_104" data-name="Group 104" transform="translate(5175.826 1838.4)"><g id="Group_135" data-name="Group 135" transform="translate(0 0)"><path id="Path_69" data-name="Path 69" d="M51.47,26.967a11.655,11.655,0,0,0,.285-3.905,12.091,12.091,0,0,0-.228-2.256l.445-.169.55-.551a14.3,14.3,0,0,0-1.676-4.605H49.822a7.182,7.182,0,0,0-2.607-2.948l-.028-.341s-.333-.634-.691-.729-6.379-.428-6.379-.428l-.218-.151L37.907,10.8a4.846,4.846,0,0,1-.311-1.7,2.735,2.735,0,0,0-2.02-2.219,2.032,2.032,0,0,0-.74-.049v.049s-.038-.027,0-.049c.008-.294.044-1.853-.018-2.515a6.121,6.121,0,0,0-2.8-3.634A3.571,3.571,0,0,0,29.957.013c-.883-.031-13.59,0-13.59,0a3.539,3.539,0,0,0-2.853,1.231,6.675,6.675,0,0,0-1.336,2.92,16.882,16.882,0,0,0-.238,2.3,8.824,8.824,0,0,0-1.792.132A2.258,2.258,0,0,0,8.831,8.514l-.067.775v.067l-.946.028s-.445.076-.54.711c-.028.188-.049.1-.049.1l-1.079.067A5.834,5.834,0,0,0,4.3,11.841c-.428.5-.778.957-.778.957l.115.68a7.309,7.309,0,0,0-1.812,2.39C.859,17.66-.239,20.1.045,22.617s.369,3.828,1.668,5.98,1.754,2.227,1.754,2.227l.046.465-.2.673a11.538,11.538,0,0,0,1.231,1.326,10.349,10.349,0,0,0,1.8,1.29,7.32,7.32,0,0,0,1.553.2c.182-.049.607-.2.607-.2A1.717,1.717,0,0,1,9.02,33.9a1.094,1.094,0,0,1,.891-.133A9.11,9.11,0,0,0,14,33.827a9.084,9.084,0,0,0,1.649.183,2.378,2.378,0,0,0,.729-.418l10.6.54A13.021,13.021,0,0,0,30,37.042h1.6a3.216,3.216,0,0,0,.872-.217c.152-.122.428-.711.768-.788s3.439.066,3.439.066a5.743,5.743,0,0,0,2.324,1.016h2.7a8.843,8.843,0,0,0,3.5.113c1.8-.34,1.7-1.174,1.7-1.174v-.57a9.9,9.9,0,0,0,2.672-3.229l1.043.008A11.848,11.848,0,0,0,52.4,27.657a1.8,1.8,0,0,0-.93-.69M29.729,11.092a5.72,5.72,0,0,0-1.367,1.3L18.025,11.67l-.2-.056a2.755,2.755,0,0,0-.389-.438l-1.157-1v-.162c.55-.312.627-1.735.627-1.735s.095-2.02.235-3.155.571-1.4.571-1.4.35-.039.386,0,.323.217.323.217,1.527.038,1.717.027a3.379,3.379,0,0,0,.653-.188h.929A3.5,3.5,0,0,0,22.042,4s1.451.028,1.574.028a7.936,7.936,0,0,0,.834-.217h.862c.046.141.294.235.294.235l1.687.027L28,3.888h.862l.18.416a4.532,4.532,0,0,1,.473.863A6.056,6.056,0,0,1,29.2,8.059a3.306,3.306,0,0,0,.087,2.085,1.5,1.5,0,0,0,.835.768s-.19.084-.389.179M43.594,33.733c-2.92,0-5.286-4.268-5.286-9.535s2.366-9.535,5.286-9.535,5.289,4.271,5.289,9.535-2.366,9.535-5.289,9.535" transform="translate(0 0)" fill="#fff"></path></g></g></g><g id="Group_1626" data-index="5" data-name="Group 1626"><g transform="matrix(1, 0, 0, 1, 4828, 1570)" filter="url(#Path_80)"><path id="Path_80-2" data-name="Path 80" d="M94.51,275.567l-67.055,38.71A201.958,201.958,0,0,1,0,212.28H77.421A125.015,125.015,0,0,0,94.51,275.567" transform="translate(15 32.67)"></path></g><g id="Group_106" data-name="Group 106" transform="translate(4862.215 1838.4)"><g id="Group_115" data-name="Group 115" transform="translate(0 0)" clipPath="url(#clip-path-7)"><path id="Path_72" data-name="Path 72" d="M44.784,23.378l.054-1.519-1.089-.04a8.221,8.221,0,0,0-.666-2.682l.959-.5-.705-1.347-.987.516a8.329,8.329,0,0,0-1.906-1.978l.6-.944-1.28-.82-.622.967a8.286,8.286,0,0,0-3.134-.837L36,13.055l-1.521.019.013,1.154A8.27,8.27,0,0,0,31.867,15l-.57-.973-1.313.768.579.986a8.321,8.321,0,0,0-1.921,1.962l-.952-.547-.76,1.317.962.553a8.278,8.278,0,0,0-.7,2.673l-1.068,0-.006,1.519,1.076.006a8.211,8.211,0,0,0,.73,2.679l-.907.513.747,1.324.922-.52a8.314,8.314,0,0,0,1.969,1.969l-.527.883,1.307.78.536-.9a8.214,8.214,0,0,0,2.692.737l-.02,1.015,1.521.032.021-1.041a8.244,8.244,0,0,0,2.7-.7l.489.9,1.336-.728-.5-.919A8.315,8.315,0,0,0,42.2,27.321l.88.545.8-1.293-.9-.56a8.223,8.223,0,0,0,.76-2.671ZM35.47,25.359a2.859,2.859,0,1,1,2.852-2.866,2.863,2.863,0,0,1-2.852,2.866" transform="translate(11.316 5.656)" fill="#fff"></path><path id="Path_73" data-name="Path 73" d="M37.327,20.645l.109-3.041-2.178-.077a16.487,16.487,0,0,0-1.333-5.363l1.918-1-1.41-2.7L32.456,9.5a16.662,16.662,0,0,0-3.811-3.959l1.21-1.886L27.294,2.014,26.052,3.948a16.541,16.541,0,0,0-6.27-1.674L19.755,0,16.714.034l.026,2.31a16.547,16.547,0,0,0-5.248,1.534L10.35,1.932,7.726,3.468,8.883,5.443A16.712,16.712,0,0,0,5.042,9.365L3.138,8.27,1.619,10.9l1.926,1.109a16.449,16.449,0,0,0-1.4,5.343L.014,17.348,0,20.39l2.153.007a16.435,16.435,0,0,0,1.458,5.359L1.8,26.781,3.292,29.43,5.135,28.39a16.682,16.682,0,0,0,3.937,3.94L8.02,34.092l2.611,1.561,1.073-1.8a16.537,16.537,0,0,0,5.383,1.476l-.04,2.028,3.041.062.042-2.081a16.522,16.522,0,0,0,5.4-1.407l.976,1.794,2.672-1.455-1-1.836a16.674,16.674,0,0,0,3.976-3.905l1.759,1.089,1.6-2.587L33.71,25.914a16.455,16.455,0,0,0,1.519-5.343ZM18.7,24.607a5.719,5.719,0,1,1,5.7-5.733,5.726,5.726,0,0,1-5.7,5.733" transform="translate(0 0)" fill="#fff"></path><path id="Path_74" data-name="Path 74" d="M36.627,10.21l.027-.75-.536-.019a4.052,4.052,0,0,0-.328-1.32l.472-.248-.347-.662-.486.254a4.146,4.146,0,0,0-.939-.973l.3-.464-.631-.4-.305.476a4.056,4.056,0,0,0-1.544-.411l-.006-.56-.75.009.007.569a4.049,4.049,0,0,0-1.293.377l-.281-.48-.646.38.285.486a4.139,4.139,0,0,0-.946.965l-.467-.269-.375.649.474.272A4.09,4.09,0,0,0,27.967,9.4l-.525,0,0,.75h.529a4.041,4.041,0,0,0,.36,1.32l-.447.252.368.652.453-.257a4.1,4.1,0,0,0,.97.97l-.259.433.642.384.265-.441a4.044,4.044,0,0,0,1.324.363l-.01.5.75.016.01-.512a4.122,4.122,0,0,0,1.329-.347l.241.441.658-.358-.247-.451a4.083,4.083,0,0,0,.98-.962l.433.268.394-.636-.446-.275a4.034,4.034,0,0,0,.374-1.316Zm-4.585.975a1.407,1.407,0,1,1,1.4-1.41,1.409,1.409,0,0,1-1.4,1.41" transform="translate(11.887 2.222)" fill="#fff"></path></g></g></g><g id="Group_1625" data-index="6" data-name="Group 1625" class=""><g transform="matrix(1, 0, 0, 1, 4828, 1570)" filter="url(#Path_79)"><path id="Path_79-2" data-name="Path 79" d="M141.6,324.027,102.88,391.082A203.893,203.893,0,0,1,28.71,317.17l67.055-38.71A126.164,126.164,0,0,0,141.6,324.027" transform="translate(13.75 29.78)"></path></g><g id="Group_107" data-name="Group 107" transform="translate(4914.23 1905.48)"><g id="Group_117" data-name="Group 117" transform="translate(0 0)" clipPath="url(#clip-path-8)"><path id="Path_75" data-name="Path 75" d="M36.383,24.8c0-.013,0-.024,0-.036s0-.041-.007-.062v-.007h0c0-.023-.011-.046-.018-.07s-.015-.048-.024-.073-.02-.048-.032-.072-.024-.05-.039-.075-.03-.05-.047-.074-.033-.051-.053-.076-.041-.049-.062-.074-.043-.049-.067-.074-.051-.049-.076-.072-.052-.048-.08-.071-.061-.047-.093-.07-.06-.045-.092-.065-.072-.044-.108-.065l-.1-.06c-.04-.02-.082-.04-.124-.059s-.075-.037-.114-.053-.094-.034-.141-.051-.081-.029-.124-.043-.1-.027-.157-.04-.087-.022-.133-.032-.116-.02-.175-.028-.093-.016-.141-.02-.129-.01-.193-.014c-.049,0-.1-.007-.146-.008-.071,0-.146,0-.221,0-.047,0-.093,0-.142,0-.084.006-.173.018-.261.028-.042.006-.083.008-.126.014-.133.02-.269.046-.409.079A11.062,11.062,0,0,0,27.6,27.118c-.156.181-.3.343-.438.495-.054.06-.1.109-.152.166-.08.086-.159.173-.233.251-.058.06-.11.111-.165.165s-.122.123-.18.177-.107.1-.16.142-.1.09-.153.129-.1.077-.153.113-.094.064-.141.092a1.642,1.642,0,0,1-.151.082c-.045.022-.089.042-.134.061s-.1.038-.153.053-.089.022-.135.032-.105.019-.16.023a1.928,1.928,0,0,1-.252.012c-1.269-.047-2.43-.956-2.68-3.152q-.042-.372-.084-.733c-.011-.093-.02-.182-.03-.274-.019-.165-.037-.329-.055-.491-.011-.1-.02-.192-.03-.289-.016-.152-.031-.3-.046-.456-.009-.1-.018-.2-.027-.3-.013-.145-.024-.291-.036-.437-.007-.1-.015-.21-.022-.314-.009-.146-.018-.294-.025-.442,0-.105-.011-.21-.016-.317-.006-.153-.01-.31-.014-.467,0-.1-.006-.2-.007-.31,0-.175,0-.355,0-.536,0-.091,0-.18,0-.272.006-.275.015-.557.029-.849.188-3.7.563-7.715.659-9.469a11.24,11.24,0,0,0-.941-5.957,2.7,2.7,0,0,0-.208-.325c-.022-.03-.045-.056-.068-.083a1.992,1.992,0,0,0-.166-.181c-.024-.022-.049-.048-.074-.068a1.59,1.59,0,0,0-.21-.155c-.012-.008-.023-.018-.036-.025a1.472,1.472,0,0,0-.256-.119.7.7,0,0,0-.073-.022,1.391,1.391,0,0,0-.193-.047c-.028,0-.055-.01-.083-.013a1.484,1.484,0,0,0-.208-.012H19.89a1.71,1.71,0,0,0-.256.031l-.055.013c-.065.016-.13.033-.192.055l-.035.01,0,0a1.833,1.833,0,0,0-.719.464v0l0,.008a1.325,1.325,0,0,0-.126.157c-.5.752-.5,2.571-.5,4.264a48.148,48.148,0,0,1-.608,6.082c-.219,1.477-.02,3.671-.333,4.7a2.181,2.181,0,0,1-.117.3c-.014.03-.029.054-.044.082a1.588,1.588,0,0,1-.091.153c-.019.025-.038.048-.057.07a.794.794,0,0,1-.088.092.657.657,0,0,1-.061.048.39.39,0,0,1-.081.04.322.322,0,0,1-.062.019.2.2,0,0,1-.069-.006.21.21,0,0,1-.06-.014.28.28,0,0,1-.06-.055.415.415,0,0,1-.074-.118,1.043,1.043,0,0,1-.076-.427c0-.428.006-1.228.013-2.14l0-.4,0-.138c0-.2,0-.407,0-.613v-.026c0-.406.007-.812.011-1.2,0-.155,0-.3,0-.452s0-.294,0-.434,0-.263,0-.388v-.025c0-.141,0-.272,0-.4,0-.046,0-.091,0-.133,0-.134,0-.26,0-.366.01-1.443-.679-4.2-.743-5.457a22.586,22.586,0,0,0-.878-5.581A1.738,1.738,0,0,0,12.551.026a2.052,2.052,0,0,0-.315.067c-.036.01-.07.025-.105.038a1.507,1.507,0,0,0-.183.075c-.041.02-.079.045-.117.068a1.478,1.478,0,0,0-.144.1c-.038.03-.074.062-.109.1-.018.019-.039.032-.056.051l.014,0a1.645,1.645,0,0,0-.308.47v0L11.219,1c-.019.044-.033.1-.05.144a2.518,2.518,0,0,0-.077.25c-.014.057-.025.117-.038.178-.019.1-.033.209-.044.321-.006.06-.014.115-.018.179-.012.181-.017.374-.01.586.062,1.88.243,5.455.121,7.149a31.775,31.775,0,0,0,.093,5.979c.04.365.426,3.722-.151,3.8a.131.131,0,0,1-.077-.012.1.1,0,0,1-.016-.014.19.19,0,0,1-.05-.044.215.215,0,0,1-.015-.025.423.423,0,0,1-.042-.076c0-.009-.007-.02-.011-.029-.013-.034-.025-.07-.037-.112-.171-.632-.173-2.149-.373-3.905-.007-.063-.015-.122-.021-.184v0c-.009-.076-.019-.148-.027-.223q-.034-.284-.067-.558c-.007-.051-.013-.1-.02-.151-.115-.906-.232-1.738-.333-2.535-.008-.062-.017-.126-.023-.187-.02-.153-.037-.3-.055-.456-.009-.078-.019-.158-.027-.236-.019-.167-.035-.333-.052-.5l-.018-.176c-.02-.225-.039-.45-.055-.676a42.03,42.03,0,0,0-.565-4.844C8.944,3.7,8.38,2.723,7.189,2.974a3.128,3.128,0,0,0-.4.11c-.03.011-.056.024-.084.035a2.345,2.345,0,0,0-.26.117c-.028.016-.052.035-.078.052a1.842,1.842,0,0,0-.213.149c-.023.021-.044.045-.066.067a1.658,1.658,0,0,0-.172.187c-.006.008-.013.013-.019.02h0a2.1,2.1,0,0,0-.277.516v0l-.006.017a3.312,3.312,0,0,0-.105.35c-.007.025-.016.049-.021.076-.036.154-.067.32-.092.5a61.813,61.813,0,0,0,.188,6.836,52.782,52.782,0,0,0,.368,5.887c.313,1.566.824,4.021.51,4.147a.153.153,0,0,1-.108,0,.127.127,0,0,1-.03-.016.3.3,0,0,1-.077-.06l-.028-.032a.929.929,0,0,1-.093-.146l-.006-.01c-.033-.066-.067-.144-.1-.231-.2-.506-.386-1.343-.618-2.272h0c0-.013-.006-.025-.01-.038-.053-.211-.106-.424-.164-.641l-.02-.078c-.06-.226-.122-.453-.189-.679-.626-2.131-1.066-3.324-1.316-4.577S2.641,9.5,1.388,9.81A2.6,2.6,0,0,0,1,9.941C.96,9.959.927,9.979.891,10a1.581,1.581,0,0,0-.207.122c-.035.023-.067.05-.1.076a1.4,1.4,0,0,0-.149.145c-.026.028-.053.058-.076.088a1.5,1.5,0,0,0-.117.189C.227,10.645.21,10.67.2,10.7a1.822,1.822,0,0,0-.106.3c-.009.033-.014.069-.02.1-.017.078-.032.158-.042.242-.006.049-.01.1-.014.15S0,11.576,0,11.62l0-.008a6.438,6.438,0,0,0,0,.644,53.436,53.436,0,0,0,.878,6.02c.273,1.2,1.022,3.783,1.293,5.3.016.09.029.174.042.256,0,.02.008.044.01.063.015.1.026.193.034.276.126,1.317.816,6.836,1.38,9.847s2.007,6.71,2.07,8.153A21.054,21.054,0,0,0,5.9,44.8a16.266,16.266,0,0,1,.377,2.76c0,1.067,0,4.2,0,5.457,0,0-.484-.106-.655.564a1.167,1.167,0,0,0-.033.156c0,.023-.01.039-.013.063a1.052,1.052,0,0,0,.035.4,1.631,1.631,0,0,0,.772,1.03c1.01.783,3.134,1.511,7.293,1.511h.252c.106,0,.21,0,.315,0h.105a17.567,17.567,0,0,0,4.574-.57q.323-.092.6-.194c.02-.007.04-.013.06-.02a5.3,5.3,0,0,0,1.228-.626c.051-.033.108-.061.157-.095a1.828,1.828,0,0,0,.783-1.138,1.114,1.114,0,0,0,.019-.117v0c0-.034,0-.066,0-.1l0-.023a1.144,1.144,0,0,0-.023-.235.6.6,0,0,0-.017-.063.784.784,0,0,0-.038-.111.759.759,0,0,0-.034-.08.807.807,0,0,0-.083-.124l-.013-.013a.555.555,0,0,0-.376-.2l-.049-.006a43.591,43.591,0,0,1,.377-6.461c.752-3.7,1.5-4.49,4.17-7.477A31.137,31.137,0,0,0,29.8,33.139c.873-1.54,2.3-2.86,2.783-3.842a6.249,6.249,0,0,1,1.794-2.583c.753-.473,1.945-1.163,2.007-1.854a.436.436,0,0,0,0-.061h0" transform="translate(0 0)" fill="#fff"></path></g></g></g><g id="Group_1624" data-index="7" data-name="Group 1624" class=""><g transform="matrix(1, 0, 0, 1, 4828, 1570)" filter="url(#Path_78)"><path id="Path_78-2" data-name="Path 78" d="M207.646,342.836v77.421A202.028,202.028,0,0,1,106.27,393.166l38.719-67.055a124.964,124.964,0,0,0,62.657,16.724" transform="translate(10.36 27.69)"></path></g><g id="Group_119" data-name="Group 119" transform="translate(4966.613 1944.768)"><g id="Group_118" data-name="Group 118" clipPath="url(#clip-path-9)"><path id="Path_88" data-name="Path 88" d="M68.745,53.23c-.081-.987-.751-1.385-8.424-2.047s-15.852,1.5-17.509,1.958-18.082.512-19.195.54c-3.6.1-12.907-3.55-16.307-6.681s-4.525-9.1-4.525-9.1c.325-.309.585-.585.585-.585L3.944,31a2.088,2.088,0,0,0-.431-1.064A22.225,22.225,0,0,1,14.9,27.476c0,.4,0,.675,0,.784a2.4,2.4,0,0,0,.435,1.848,1.555,1.555,0,0,0,.861.378l3.639.841q4.167.858,8.334,1.714a15.58,15.58,0,0,0,4.874.455c2.7-.183,19.223-2.437,19.223-2.437a1.811,1.811,0,0,0,1.2-.293v0l.426,3.2s.122-.024.422-.446.63-.695.63-1.056S54.1,29.4,54.1,29.4l-.361-4.992-1.113-1.024c-.345-.946-1.466-3.594-2.5-6s-1.982-4.59-1.982-4.59.544-.178.573-.361A31.363,31.363,0,0,1,48.738,8.7c.183-.784.573-1.9.093-2.437s-1.625-.634-1.958-.752a33.815,33.815,0,0,1-3.249-1.957c-.361-.268-.963.573-.963.573A14.227,14.227,0,0,0,31.379.041C24.129.549,20.251,3.29,17.631,7.709a18.1,18.1,0,0,0-2.616,8.367s-.045,4.155-.081,7.624c0,.138,0,.272,0,.406,0,.045,0,.089,0,.133C9.689,24.3,4.053,28.309,2.352,29.622a1.392,1.392,0,0,0-1.446.925,9.581,9.581,0,0,0-.573,3.306L0,37.975a6.12,6.12,0,0,0,.516.362L.3,41.164A8.559,8.559,0,0,0,1,44.624c1.848,4.407,4.24,5.719,5.747,7.011,5.914,5.109,13.838,6.048,22.773,6.23s21.453-.422,23.406-.756,11.583-.15,13.387-.056A2.494,2.494,0,0,0,68.745,55.7s.033-2.1,0-2.465M14.925,24.645c-.009.939-.016,1.787-.023,2.429A22.711,22.711,0,0,0,3.079,29.7H3.07l-.121-.015c2-1.483,7.23-4.988,11.975-5.042M60.593,55.033c-1.3.122-7.733-.15-12.335.061a34.529,34.529,0,0,1,9.447-1.023c4.963.211,7.461.5,7.461.5s-3.282.346-4.573.463" transform="translate(0 -0.001)" fill="#fff"></path><path id="Path_89" data-name="Path 89" d="M77.093,33.4s-3.419-7.294-7.013-11.719a9.888,9.888,0,1,0-8.09,15.571,9.977,9.977,0,0,0,1.641-.138c3.791-.32,12.891-1.093,13.462-1.188.722-.12,0-2.527,0-2.527" transform="translate(-30.941 -10.379)" fill="#fff"></path><path id="Path_90" data-name="Path 90" d="M59.459,31.822a6.84,6.84,0,1,1,6.84,6.841,6.84,6.84,0,0,1-6.84-6.841" transform="translate(-35.31 -14.836)" fill="#fff"></path><path id="Path_91" data-name="Path 91" d="M59.459,31.822a6.84,6.84,0,1,1,6.84,6.841A6.84,6.84,0,0,1,59.459,31.822Z" transform="translate(-35.31 -14.836)" fill="#fff"></path></g></g></g><g id="Group_1622" data-index="9" data-name="Group 1622" class=""><g transform="matrix(1, 0, 0, 1, 4828, 1570)" filter="url(#Path_76)"><path id="Path_76-2" data-name="Path 76" d="M390.689,317.17a203.886,203.886,0,0,1-74.17,73.911L277.8,324.027a126.16,126.16,0,0,0,45.836-45.567Z" transform="translate(2.86 29.78)"></path></g><g id="Group_133" data-name="Group 133" transform="translate(5134.119 1903.207)" clipPath="url(#clip-path-10)"><path id="Path_92" data-name="Path 92" d="M38.206,30.815c-.015-.107-.06-.259-.381-.259-.183,0-.365,0-.4.183s-.137.822-.137.822l-3.547-.107-.014-1.035a.153.153,0,0,0-.152-.137h-.793a2.515,2.515,0,0,0-.289-.4c-.061-.031-.4-.107-.67.334l-.548.016s-.106.06-.106.121a6.212,6.212,0,0,1-1.066.031s-.517-.716-.685-.716a.919.919,0,0,0-.868.3l-3.516-.091a.252.252,0,0,0-.243-.226c-.229-.017-1.492,0-1.492,0l-.015-.276s.153-.015.182-.091a6.949,6.949,0,0,0-.014-.821L23.3,28.38V28.2a8.363,8.363,0,0,0,.837-1.294,2.19,2.19,0,0,0-.472-2.42c-1.02-.929-2.086-1.249-2.741-.883s-1.217.761-1.217.761L16.15,27.573l-.182.03a1.429,1.429,0,0,0-.487-1.141,1.214,1.214,0,0,0-1.78.761H11.675l.4-.777.213-.258s.761,0,.913-.182.868-1.37.868-1.37l.487.151a.335.335,0,0,0,.381-.106,8.009,8.009,0,0,0,3.729-.579,6.651,6.651,0,0,0,1.69-1.279L29.317,9.4a1.482,1.482,0,0,0,.929.137c.365-.137.228-.761.228-.761l-.228-.518h.2V7.968l-.549-.427L30,7.3s.4-.655-.685-1.523-8.9-5.693-8.9-5.693a1.148,1.148,0,0,0-.99.076,1.607,1.607,0,0,1-.533.334A2.929,2.929,0,0,0,18.1.281c-.122.045-.046.274-.046.274s-.639-.076-.746.122-.289.562-.122.837a1.384,1.384,0,0,0,.382.41l.03.107L9.254,15.594a7.278,7.278,0,0,0-.38,3.1,12.133,12.133,0,0,0,.99,2.71l.106.456.411.443-.822,1.308L9.7,24.7,9.1,25.61l-.182.107L7.428,28.045l-.137-.015v-.32l-.091-.06v-.2l-.609-.015L6.408,27.3,5.1,27.284l-.076.137-1.1-.016-.289.579-.654.03L1.674,29.628l-1.34.03v.563L0,30.206v1.4l1.659.061a3.006,3.006,0,0,0,1.141,1.8l.579.045s.106.579.243.608,1.142.168,1.142.168l.243.076L6.88,34.3l.107-.412s-.031-1.065.289-1.065,3.136.031,3.136.031,1.415-.138,1.446-.382a4.806,4.806,0,0,0,0-.685h.228s.046.229.213.274a2.71,2.71,0,0,0,.594.016l.076.107L11.233,44.454s-.258.563-.746.608-1.142-.183-1.233.015a.622.622,0,0,0,.122.7,2.359,2.359,0,0,0,1.4.107c.487-.137.852-.944.852-.944l.959-3.744,2.253-8.9,1.415.015v.152l.959.609.03.381-.258.213,5.053,21.127a1.39,1.39,0,0,1-.731,1.4c-.852.365-1.644.73-1.279,1.156a1.228,1.228,0,0,0,.974.366l3.166-.67v.673s.03.712.457.894a2.308,2.308,0,0,0,.593.2l-.076.289-.137.228.5,2.664.335.183.091.411a3.719,3.719,0,0,0,2.877-.594l-.076-.472.274-.3-.441-2.405-.35-.288-.077-.275s.594-.274.625-.5a10.753,10.753,0,0,0-.243-1.461l-.107-.274s1.4-.259,1.523-.746c0,0-3.9-16.561-4.019-17.155s-.183-1.872.7-2.359a6.25,6.25,0,0,1,2.435-.487.417.417,0,0,0,.427-.441.506.506,0,0,0-.335-.548l-4.11-.168-.137-.609,3.409.091.3.456.685.031.716-.579h1.05s-.046.425.122.411.563-.03.563-.03.212.411.274.411.305-.015.305-.015l.258-.351.959-.014a.745.745,0,0,0,.137-.274v-.7h3.562v.958s.015.228.122.228.639-.03.639-.03.168-.2.2-1.157.016-2.009,0-2.116M22.984,26.827a10.629,10.629,0,0,1-.868,1.035l-4.094-.076L17.87,27.6s2.07-2.268,2.466-2.527,1.233-.837,1.995-.365a1.465,1.465,0,0,1,.654,2.116" transform="translate(0 0)" fill="#fff"></path></g></g><g id="Group_1623" data-index="8" data-name="Group 1623"><g transform="matrix(1, 0, 0, 1, 4828, 1570)" filter="url(#Path_77)"><path id="Path_77-2" data-name="Path 77" d="M313.656,393.165A202.014,202.014,0,0,1,212.28,420.255v-77.42a124.946,124.946,0,0,0,62.656-16.725Z" transform="translate(5.72 27.69)"></path></g><g id="Group_134" data-name="Group 134" transform="translate(5053.393 1954.15)"><g id="Group_107-2" data-name="Group 107" transform="translate(0 0)" clipPath="url(#clip-path-11)"><path id="Path_67" data-name="Path 67" d="M69.453,34.8A74.29,74.29,0,0,0,64.089,6.836V4.91l.989-1.672L64.141,1.58H51.594L50.11,0H31.54L29.965.79V2.926H28.806V2.753A1.414,1.414,0,0,0,27.392,1.34H23.5a1.411,1.411,0,0,0-1.36,1.045h-.013A1.41,1.41,0,0,0,20.735,1.2H16.847a1.413,1.413,0,0,0-1.363,1.043H12.031L10.949,3.1v.407L7.843,4.29v.382H.32a.32.32,0,0,0,0,.641H7.843v.534l3.106.775v.341l1.082.922h3.453a1.419,1.419,0,0,0,1.363,1.049h3.888a1.415,1.415,0,0,0,1.319-.91h.087A1.411,1.411,0,0,0,23.5,9.068h3.892a1.414,1.414,0,0,0,1.414-1.415V7.481h1.159v2.3L31.674,11.2v.851l1.259,1.226h3.345v2.457l2.805,2.321H49.128l.432.989h0l.621,1.422h3.574l1.283,1.053,1.42,5.819a3.722,3.722,0,0,0,1.533.218h0c.089,0,.18-.009.274-.019l.029,0c.084-.009.169-.02.259-.034l.057-.008c.083-.015.167-.031.252-.051l.072-.015c.11-.025.22-.054.334-.088l2.371,7.99-1.731,1.732v1.767H70.3V37.062Z" transform="translate(0 0)" fill="#fff"></path></g></g></g></g></svg>