<svg xmlns="http://www.w3.org/2000/svg" width="808" height="412" viewBox="0 0 808 412">
  <g id="Rectangle_4607" data-name="Rectangle 4607" fill="#fff" stroke="#e4e4e4" stroke-width="1">
    <rect width="808" height="412" stroke="none"/>
    <rect x="0.5" y="0.5" width="807" height="411" fill="none"/>
  </g>
  <g id="Group_3987" data-name="Group 3987" transform="translate(-1879 4318)">
    <g id="Group_3986" data-name="Group 3986" transform="translate(129 -338.447)">
      <g id="Path_2792" data-name="Path 2792" transform="translate(1771 -3919)" fill="#f5f5f5">
        <path d="M 767.5 94.37400817871094 L 0.5 94.37400817871094 L 0.5 0.5000117421150208 L 767.5 0.5000117421150208 L 767.5 94.37400817871094 Z" stroke="none"/>
        <path d="M 1 1.000015258789063 L 1 93.87400817871094 L 767 93.87400817871094 L 767 1.000015258789063 L 1 1.000015258789063 M 0 1.52587890625e-05 L 768 1.52587890625e-05 L 768 94.87400817871094 L 0 94.87400817871094 L 0 1.52587890625e-05 Z" stroke="none" fill="#e4e4e4"/>
      </g>
      <text id="لورم_ایپسوم_متن_ساختگی_با_تولید_سادگی_نامفهوم_از_صنعت_چاپ_و_با_استفاده_از_طراحان_گرافیک_است._چاپگرها_و_متون_بلکه_روزنامه_و_مجله_در_ستون_و_سطرآنچنان_که_لازم_است_و_برای_شرایط_فعلی_تکنولوژی_مورد_نیاز_و_کاربردهای_متنوع_با_هدف_بهبود_ابزارهای_کاربردی_می_باشد._کت" data-name="لورم ایپسوم متن ساختگی با تولید سادگی نامفهوم از صنعت چاپ و با استفاده از طراحان گرافیک است. چاپگرها و متون بلکه روزنامه و مجله در ستون و سطرآنچنان که لازم است و برای شرایط فعلی تکنولوژی مورد نیاز و کاربردهای متنوع با هدف بهبود ابزارهای کاربردی می باشد. کت" transform="translate(1787 -3903)" fill="gray" font-size="12" font-family="SegoeUI-Light, Segoe UI" font-weight="300"><tspan x="10.539" y="13">لورم ایپسوم متن ساختگی با تولید سادگی نامفهوم از صنعت چاپ و با استفاده از طراحان گرافیک است. چاپگرها و متون بلکه روزنامه و مجله در ستون و سطرآنچنان که</tspan><tspan y="13"> </tspan><tspan x="4.041" y="34">لازم است و برای شرایط فعلی تکنولوژی مورد نیاز و کاربردهای متنوع با هدف بهبود ابزارهای کاربردی می باشد. کتابهای زیادی در شصت و سه درصد گذشته، حال و آینده</tspan><tspan y="34"> </tspan></text>
      <g id="Group_3983" data-name="Group 3983" transform="translate(2429 -3854)">
        <g id="thumb_up-24px_2_" data-name="thumb_up-24px (2)" transform="translate(77 1)">
          <path id="Path_183" data-name="Path 183" d="M0,0H17V17H0ZM0,0H17V17H0Z" fill="none"/>
          <path id="Path_184" data-name="Path 184" d="M9.98,1,5.091,6.026V15h8.393L16,8.98V5.9H10.334L11.1,2.134ZM1,6.6H3.727V15H1Z" fill="#26be16"/>
        </g>
        <text id="_۲۲" data-name="۲۲" transform="translate(68 13)" font-size="11" font-family="SegoeUI-Light, Segoe UI" font-weight="300"><tspan x="-9.088" y="0">۲۲</tspan></text>
        <g id="thumb_up-24px_2_2" data-name="thumb_up-24px (2)" transform="translate(17 18) rotate(180)">
          <path id="Path_183-2" data-name="Path 183" d="M0,0H17V17H0ZM0,0H17V17H0Z" fill="none"/>
          <path id="Path_184-2" data-name="Path 184" d="M9.98,1,5.091,6.026V15h8.393L16,8.98V5.9H10.334L11.1,2.134ZM1,6.6H3.727V15H1Z" fill="#c2c2c2"/>
        </g>
        <text id="_-۱۵" data-name="-۱۵" transform="translate(37 13)" font-size="11" font-family="SegoeUI-Light, Segoe UI" font-weight="300"><tspan x="-13.707" y="0">-۱۵</tspan></text>
        <path id="Path_187" data-name="Path 187" d="M-4936.857-14041.71v-12.039" transform="translate(4983.357 14058.249)" fill="none" stroke="#ccc" stroke-width="1"/>
      </g>
      <g id="Group_3985" data-name="Group 3985" transform="translate(1069 -5778)">
        <g id="reply-24px" transform="translate(718 1921)">
          <path id="Path_1667" data-name="Path 1667" d="M0,0H24V24H0Z" fill="none"/>
          <path id="Path_1668" data-name="Path 1668" d="M10,9V5L3,12l7,7V14.9c5,0,8.5,1.6,11,5.1C20,15,17,10,10,9Z" fill="#3a3a3a"/>
        </g>
        <text id="پاسخ" transform="translate(765 1936)" fill="gray" font-size="11" font-family="SegoeUI, Segoe UI"><tspan x="-22.043" y="0">پاسخ</tspan></text>
      </g>
      <g id="Group_3984" data-name="Group 3984" transform="translate(2427 -3945)">
        <g id="Group_556" data-name="Group 556">
          <text id="احسان_علی_خانی" data-name="احسان علی‌خانی" transform="translate(112 10)" font-size="11" font-family="SegoeUI-Light, Segoe UI" font-weight="300"><tspan x="-69.185" y="0">احسان علی‌خانی</tspan></text>
          <text id="_۹۹_۸_۱۲" data-name="۹۹/۸/۱۲" transform="translate(36 11)" fill="gray" font-size="11" font-family="SegoeUI-Light, Segoe UI" font-weight="300"><tspan x="-32.452" y="0">۹۹/۸/۱۲</tspan></text>
        </g>
      </g>
    </g>
    <g id="Group_3986-2" data-name="Group 3986" transform="translate(129 -204.447)">
      <g id="Path_2792-2" data-name="Path 2792" transform="translate(1771 -3919)" fill="#f5f5f5">
        <path d="M 767.5 180.7209777832031 L 0.5 180.7209777832031 L 0.5 0.4999736249446869 L 767.5 0.4999736249446869 L 767.5 180.7209777832031 Z" stroke="none"/>
        <path d="M 1 0.999969482421875 L 1 180.2209777832031 L 767 180.2209777832031 L 767 0.999969482421875 L 1 0.999969482421875 M 0 -3.0517578125e-05 L 768 -3.0517578125e-05 L 768 181.2209777832031 L 0 181.2209777832031 L 0 -3.0517578125e-05 Z" stroke="none" fill="#e4e4e4"/>
      </g>
      <text id="لورم_ایپسوم_متن_ساختگی_با_تولید_سادگی_نامفهوم_از_صنعت_چاپ_و_با_استفاده_از_طراحان_گرافیک_است._چاپگرها_و_متون_بلکه_روزنامه_و_مجله_در_ستون_و_سطرآنچنان_که_لازم_است_و_برای_شرایط_فعلی_تکنولوژی_مورد_نیاز_و_کاربردهای_متنوع_با_هدف_بهبود_ابزارهای_کاربردی_می_باشد._کت-2" data-name="لورم ایپسوم متن ساختگی با تولید سادگی نامفهوم از صنعت چاپ و با استفاده از طراحان گرافیک است. چاپگرها و متون بلکه روزنامه و مجله در ستون و سطرآنچنان که لازم است و برای شرایط فعلی تکنولوژی مورد نیاز و کاربردهای متنوع با هدف بهبود ابزارهای کاربردی می باشد. کت" transform="translate(1787 -3896.706)" fill="gray" font-size="12" font-family="SegoeUI-Light, Segoe UI" font-weight="300"><tspan x="10.539" y="13">لورم ایپسوم متن ساختگی با تولید سادگی نامفهوم از صنعت چاپ و با استفاده از طراحان گرافیک است. چاپگرها و متون بلکه روزنامه و مجله در ستون و سطرآنچنان که</tspan><tspan y="13"> </tspan><tspan x="4.041" y="34">لازم است و برای شرایط فعلی تکنولوژی مورد نیاز و کاربردهای متنوع با هدف بهبود ابزارهای کاربردی می باشد. کتابهای زیادی در شصت و سه درصد گذشته، حال و آینده</tspan><tspan y="34"> </tspan><tspan x="17.154" y="55">شناخت فراوان جامعه و متخصصان را می طلبد تا با نرم افزارها شناخت بیشتری را برای طراحان رایانه ای علی الخصوص طراحان خلاقی و فرهنگ پیشرو در زبان فارسی</tspan><tspan y="55"> </tspan><tspan x="4.281" y="76">ایجاد کرد. در این صورت می توان امید داشتلورم ایپسوم متن ساختگی با تولید سادگی نامفهوم از صنعت چاپ و با استفاده از طراحان گرافیک است. چاپگرها و متون بلکه</tspan><tspan y="76"> </tspan><tspan x="12.695" y="97">روزنامه و مجله در ستون و سطرآنچنان که لازم است و برای شرایط فعلی تکنولوژی مورد نیاز و کاربردهای متنوع با هدف بهبود ابزارهای کاربردی می باشد. کتابهای زیادی</tspan><tspan y="97"> </tspan><tspan x="26.916" y="118">در شصت و سه درصد گذشته، حال و آینده شناخت فراوان جامعه و متخصصان را می طلبد تا با نرم افزارها شناخت بیشتری را برای طراحان رایانه ای علی الخصوص</tspan><tspan y="118"> </tspan></text>
      <g id="Group_3983-2" data-name="Group 3983" transform="translate(2429 -3766.653)">
        <g id="thumb_up-24px_2_3" data-name="thumb_up-24px (2)" transform="translate(77)">
          <path id="Path_183-3" data-name="Path 183" d="M0,0H17V17H0ZM0,0H17V17H0Z" fill="none"/>
          <path id="Path_184-3" data-name="Path 184" d="M9.98,1,5.091,6.026V15h8.393L16,8.98V5.9H10.334L11.1,2.134ZM1,6.6H3.727V15H1Z" fill="#26be16"/>
        </g>
        <text id="_۲۲-2" data-name="۲۲" transform="translate(68 12)" font-size="11" font-family="SegoeUI-Light, Segoe UI" font-weight="300"><tspan x="-9.088" y="0">۲۲</tspan></text>
        <g id="thumb_up-24px_2_4" data-name="thumb_up-24px (2)" transform="translate(17 17) rotate(180)">
          <path id="Path_183-4" data-name="Path 183" d="M0,0H17V17H0ZM0,0H17V17H0Z" fill="none"/>
          <path id="Path_184-4" data-name="Path 184" d="M9.98,1,5.091,6.026V15h8.393L16,8.98V5.9H10.334L11.1,2.134ZM1,6.6H3.727V15H1Z" fill="#c2c2c2"/>
        </g>
        <text id="_-۱۵-2" data-name="-۱۵" transform="translate(37 12)" font-size="11" font-family="SegoeUI-Light, Segoe UI" font-weight="300"><tspan x="-13.707" y="0">-۱۵</tspan></text>
        <path id="Path_187-2" data-name="Path 187" d="M-4936.857-14041.71v-12.039" transform="translate(4983.357 14057.249)" fill="none" stroke="#ccc" stroke-width="1"/>
      </g>
      <g id="Group_3985-2" data-name="Group 3985" transform="translate(1787 -3770.653)">
        <g id="reply-24px-2" data-name="reply-24px">
          <path id="Path_1667-2" data-name="Path 1667" d="M0,0H24V24H0Z" fill="none"/>
          <path id="Path_1668-2" data-name="Path 1668" d="M10,9V5L3,12l7,7V14.9c5,0,8.5,1.6,11,5.1C20,15,17,10,10,9Z" fill="#3a3a3a"/>
        </g>
        <text id="پاسخ-2" data-name="پاسخ" transform="translate(47 15)" fill="gray" font-size="11" font-family="SegoeUI, Segoe UI"><tspan x="-22.043" y="0">پاسخ</tspan></text>
      </g>
      <g id="Group_3984-2" data-name="Group 3984" transform="translate(2427 -3945)">
        <g id="Group_556-2" data-name="Group 556">
          <text id="احسان_علی_خانی-2" data-name="احسان علی‌خانی" transform="translate(112 10)" font-size="11" font-family="SegoeUI-Light, Segoe UI" font-weight="300"><tspan x="-69.185" y="0">احسان علی‌خانی</tspan></text>
          <text id="_۹۹_۸_۱۲-2" data-name="۹۹/۸/۱۲" transform="translate(36 11)" fill="gray" font-size="11" font-family="SegoeUI-Light, Segoe UI" font-weight="300"><tspan x="-32.452" y="0">۹۹/۸/۱۲</tspan></text>
        </g>
      </g>
    </g>
    <rect id="Rectangle_4619" data-name="Rectangle 4619" width="785" height="353" transform="translate(1890 -4289)" fill="#fff"/>
  </g>
  <g id="Group_3988" data-name="Group 3988" transform="translate(-973 -2286)">
    <g id="Rectangle_4612" data-name="Rectangle 4612" transform="translate(1196 2407)" fill="#fff" stroke="#f1f1f1" stroke-width="3" opacity="0.55">
      <rect width="360" height="134" rx="10" stroke="none"/>
      <rect x="1.5" y="1.5" width="357" height="131" rx="8.5" fill="none"/>
    </g>
    <text id="در_این_قسمت_هنوز_نظری_ثبت_نشده_است_شما_اولین_نفری_باشید_که_ثبت_نظر_می_کنید" data-name="در این قسمت هنوز نظری ثبت نشده است
شما اولین نفری باشید که ثبت نظر می کنید" transform="translate(1331 2458)" fill="#707070" font-size="13" font-family="SegoeUI, Segoe UI"><tspan x="-109.611" y="0">در این قسمت هنوز نظری ثبت نشده است</tspan><tspan y="0"></tspan><tspan fill="#2986f1"><tspan x="-113.023" y="38" text-decoration="underline">ثبت نظر </tspan><tspan y="38" fill="#707070">شما اولین نفری باشید که ثبت نظر</tspan></tspan></text>
    <g id="Group_3982" data-name="Group 3982" transform="translate(-130 12)">
      <text id="ثبـــــــت" transform="translate(1632 2451)" fill="#707070" font-size="24" font-family="SegoeUI-Bold, Segoe UI" font-weight="700"><tspan x="-33.064" y="0">ثبـــــــت</tspan></text>
      <text id="نظــــــــــر" transform="translate(1632 2484)" fill="#707070" font-size="24" font-family="SegoeUI-Bold, Segoe UI" font-weight="700"><tspan x="-39.076" y="0">نظــــــــــر</tspan></text>
    </g>
    <rect id="Rectangle_4613" data-name="Rectangle 4613" width="27" height="27" rx="5" transform="translate(1196 2407)" fill="#fff" opacity="0.32"/>
    <rect id="Rectangle_4614" data-name="Rectangle 4614" width="29" height="29" rx="5" transform="translate(1527 2510)" fill="#fff" opacity="0.32"/>
    <text id="_" data-name="&quot;" transform="translate(1207 2458)" fill="#c2c2c2" font-size="69" font-family="SegoeUI, Segoe UI"><tspan x="-13.527" y="0">&quot;</tspan></text>
    <text id="_2" data-name="&quot;" transform="translate(1548 2488) rotate(180)" fill="#c2c2c2" font-size="69" font-family="SegoeUI, Segoe UI"><tspan x="-13.527" y="0">&quot;</tspan></text>
    <path id="Path_2791" data-name="Path 2791" d="M2273.19,700.083V653.843" transform="translate(-816 1797)" fill="none" stroke="#e4e4e4" stroke-width="1"/>
  </g>
</svg>
