<svg id="thumb_up_black_24dp_2_" data-name="thumb_up_black_24dp (2)" xmlns="http://www.w3.org/2000/svg" width="24" height="24" viewBox="0 0 24 24">
  <path id="Path_2654" data-name="Path 2654" d="M24,24H0V0H24Z" fill="none"/>
  <path id="Path_2655" data-name="Path 2655" d="M23,1H19V13h4ZM1,12a2.006,2.006,0,0,0,2,2H9.31l-.95,4.57-.03.32a1.505,1.505,0,0,0,.44,1.06L9.83,21l6.58-6.59A1.955,1.955,0,0,0,17,13V3a2.006,2.006,0,0,0-2-2H6A1.987,1.987,0,0,0,4.16,2.22L1.14,9.27A1.976,1.976,0,0,0,1,10Z" transform="translate(0 2)" fill="#ed1c24"/>
</svg>
