<svg id="thumb_down_black_24dp" xmlns="http://www.w3.org/2000/svg" width="24" height="24" viewBox="0 0 24 24">
  <path id="Path_2647" data-name="Path 2647" d="M24,24H0V0H24Zm0,0H0V0H24Z" fill="none"/>
  <path id="Path_2648" data-name="Path 2648" d="M9,23h9a1.987,1.987,0,0,0,1.84-1.22l3.02-7.05A1.976,1.976,0,0,0,23,14V12a2.006,2.006,0,0,0-2-2H14.69l.95-4.57.03-.32a1.505,1.505,0,0,0-.44-1.06L14.17,3,7.58,9.59A1.987,1.987,0,0,0,7,11V21A2.006,2.006,0,0,0,9,23ZM9,11l4.34-4.34L12,12h9v2l-3,7H9ZM5,23H1V11H5Z" transform="translate(0 -2)" fill="#aaa"/>
</svg>
