<svg id="thumb_down_black_24dp" xmlns="http://www.w3.org/2000/svg" width="24" height="24" viewBox="0 0 24 24">
  <path id="Path_2626" data-name="Path 2626" d="M0,0H24V24H0ZM0,0H24V24H0Z" fill="none"/>
  <path id="Path_2627" data-name="Path 2627" d="M15,3H6A1.987,1.987,0,0,0,4.16,4.22L1.14,11.27A1.976,1.976,0,0,0,1,12v2a2.006,2.006,0,0,0,2,2H9.31l-.95,4.57-.03.32a1.505,1.505,0,0,0,.44,1.06L9.83,23l6.59-6.59A1.987,1.987,0,0,0,17,15V5A2.006,2.006,0,0,0,15,3Zm0,12-4.34,4.34L12,14H3V12L6,5h9ZM19,3h4V15H19Z" fill="#aaa"/>
</svg>
